<?xml version="1.0" encoding="utf-8" standalone="no"?>
<!DOCTYPE svg PUBLIC "-//W3C//DTD SVG 1.1//EN"
  "http://www.w3.org/Graphics/SVG/1.1/DTD/svg11.dtd">
<svg xmlns:xlink="http://www.w3.org/1999/xlink" width="662.4pt" height="345.6pt" viewBox="0 0 662.4 345.6" xmlns="http://www.w3.org/2000/svg" version="1.1">
 <metadata>
  <rdf:RDF xmlns:dc="http://purl.org/dc/elements/1.1/" xmlns:cc="http://creativecommons.org/ns#" xmlns:rdf="http://www.w3.org/1999/02/22-rdf-syntax-ns#">
   <cc:Work>
    <dc:type rdf:resource="http://purl.org/dc/dcmitype/StillImage"/>
    <dc:date>2026-06-29T21:09:43.827869</dc:date>
    <dc:format>image/svg+xml</dc:format>
    <dc:creator>
     <cc:Agent>
      <dc:title>Matplotlib v3.10.8, https://matplotlib.org/</dc:title>
     </cc:Agent>
    </dc:creator>
   </cc:Work>
  </rdf:RDF>
 </metadata>
 <defs>
  <style type="text/css">*{stroke-linejoin: round; stroke-linecap: butt}</style>
 </defs>
 <g id="figure_1">
  <g id="patch_1">
   <path d="M 0 345.6 
L 662.4 345.6 
L 662.4 0 
L 0 0 
z
" style="fill: #ffffff"/>
  </g>
  <g id="axes_1">
   <g id="patch_2">
    <path d="M 55.15625 305.8 
L 651.6 305.8 
L 651.6 27.15 
L 55.15625 27.15 
z
" style="fill: #ffffff"/>
   </g>
   <g id="FillBetweenPolyCollection_1">
    <path d="M 82.26733 39.815909 
L 82.26733 248.123035 
L 84.536039 243.495562 
L 86.804749 238.892037 
L 89.073458 234.332267 
L 91.342168 229.836844 
L 93.610877 225.427042 
L 95.879587 221.124706 
L 98.148297 216.952128 
L 100.417006 212.9319 
L 102.685716 209.086744 
L 104.954425 205.439298 
L 107.223135 202.011852 
L 109.491845 198.826016 
L 111.760554 195.902292 
L 114.029264 193.259531 
L 116.297973 190.914267 
L 118.566683 188.879937 
L 120.835392 187.166009 
L 123.104102 185.777111 
L 125.372812 184.71228 
L 127.641521 183.964481 
L 129.910231 183.520557 
L 132.17894 183.361703 
L 134.44765 183.46447 
L 136.71636 183.802187 
L 138.985069 184.346604 
L 141.253779 185.069531 
L 143.522488 185.944256 
L 145.791198 186.946604 
L 148.059908 188.055599 
L 150.328617 189.253717 
L 152.597327 190.526803 
L 154.866036 191.863718 
L 157.134746 193.255816 
L 159.403455 194.696316 
L 161.672165 196.179642 
L 163.940875 197.7008 
L 166.209584 199.25483 
L 168.478294 200.83637 
L 170.747003 202.439367 
L 173.015713 204.056918 
L 175.284423 205.681257 
L 177.553132 207.303871 
L 179.821842 208.915706 
L 182.090551 210.507453 
L 184.359261 212.069882 
L 186.62797 213.594194 
L 188.89668 215.072374 
L 191.16539 216.49753 
L 193.434099 217.864207 
L 195.702809 219.168655 
L 197.971518 220.409068 
L 200.240228 221.585771 
L 202.508938 222.701364 
L 204.777647 223.760816 
L 207.046357 224.771515 
L 209.315066 225.743259 
L 211.583776 226.688196 
L 213.852485 227.620692 
L 216.121195 228.557135 
L 218.389905 229.515645 
L 220.658614 230.51569 
L 222.927324 231.577591 
L 225.196033 232.721904 
L 227.464743 233.968686 
L 229.733453 235.336642 
L 232.002162 236.842208 
L 234.270872 238.498598 
L 236.539581 240.314916 
L 238.808291 242.295403 
L 241.077001 244.438923 
L 243.34571 246.738744 
L 245.61442 249.182661 
L 247.883129 251.753436 
L 250.151839 254.429512 
L 252.420548 257.185912 
L 254.689258 259.995233 
L 256.957968 262.828648 
L 259.226677 265.656847 
L 261.495387 268.450876 
L 263.764096 271.182856 
L 266.032806 273.82657 
L 268.301516 276.357934 
L 270.570225 278.755356 
L 272.838935 281 
L 275.107644 283.075969 
L 277.376354 284.970405 
L 279.645063 286.673521 
L 281.913773 288.178554 
L 284.182483 289.481639 
L 286.451192 290.581597 
L 288.719902 291.47963 
L 290.988611 292.178909 
L 293.257321 292.684062 
L 295.526031 293.000571 
L 297.79474 293.134091 
L 300.06345 293.089732 
L 302.332159 292.871367 
L 304.600869 292.481013 
L 306.869578 291.918372 
L 309.138288 291.180569 
L 311.406998 290.262147 
L 313.675707 289.155291 
L 315.944417 287.850291 
L 318.213126 286.336156 
L 320.481836 284.601333 
L 322.750546 282.634452 
L 325.019255 280.425046 
L 327.287965 277.964188 
L 329.556674 275.245036 
L 331.825384 272.263253 
L 334.094094 269.017332 
L 336.362803 265.508801 
L 338.631513 261.742348 
L 340.900222 257.725867 
L 343.168932 253.470438 
L 345.437641 248.990261 
L 347.706351 244.302552 
L 349.975061 239.427401 
L 352.24377 234.387617 
L 354.51248 229.208552 
L 356.781189 223.917911 
L 359.049899 218.545551 
L 361.318609 213.123265 
L 363.587318 207.68455 
L 365.856028 202.264349 
L 368.124737 196.898753 
L 370.393447 191.624651 
L 372.662156 186.479306 
L 374.930866 181.499842 
L 377.199576 176.722625 
L 379.468285 172.18254 
L 381.736995 167.91217 
L 384.005704 163.940936 
L 386.274414 160.294252 
L 388.543124 156.992783 
L 390.811833 154.05191 
L 393.080543 151.481452 
L 395.349252 149.285707 
L 397.617962 147.463767 
L 399.886672 146.010067 
L 402.155381 144.915085 
L 404.424091 144.166088 
L 406.6928 143.747862 
L 408.96151 143.64337 
L 411.230219 143.83432 
L 413.498929 144.301628 
L 415.767639 145.025797 
L 418.036348 145.98723 
L 420.305058 147.166483 
L 422.573767 148.544496 
L 424.842477 150.102794 
L 427.111187 151.823683 
L 429.379896 153.690447 
L 431.648606 155.687534 
L 433.917315 157.800756 
L 436.186025 160.017477 
L 438.454734 162.3268 
L 440.723444 164.719739 
L 442.992154 167.189375 
L 445.260863 169.730968 
L 447.529573 172.342027 
L 449.798282 175.022307 
L 452.066992 177.773705 
L 454.335702 180.600044 
L 456.604411 183.506696 
L 458.873121 186.500039 
L 461.14183 189.586734 
L 463.41054 192.772834 
L 465.679249 196.062765 
L 467.947959 199.458281 
L 470.216669 202.957477 
L 472.485378 206.554011 
L 474.754088 210.236641 
L 477.022797 213.989144 
L 479.291507 217.790645 
L 481.560217 221.616287 
L 483.828926 225.43816 
L 486.097636 229.226358 
L 488.366345 232.950053 
L 490.635055 236.578498 
L 492.903765 240.081903 
L 495.172474 243.432155 
L 497.441184 246.60338 
L 499.709893 249.572365 
L 501.978603 252.318853 
L 504.247312 254.825733 
L 506.516022 257.079154 
L 508.784732 259.068558 
L 511.053441 260.786673 
L 513.322151 262.229447 
L 515.59086 263.395957 
L 517.85957 264.288274 
L 520.12828 264.911301 
L 522.396989 265.272595 
L 524.665699 265.382146 
L 526.934408 265.252152 
L 529.203118 264.896763 
L 531.471827 264.331814 
L 533.740537 263.574548 
L 536.009247 262.64333 
L 538.277956 261.557364 
L 540.546666 260.33642 
L 542.815375 259.000582 
L 545.084085 257.570034 
L 547.352795 256.064892 
L 549.621504 254.505092 
L 551.890214 252.910366 
L 554.158923 251.300283 
L 556.427633 249.694381 
L 558.696342 248.11236 
L 560.965052 246.574316 
L 563.233762 245.100982 
L 565.502471 243.713897 
L 567.771181 242.43546 
L 570.03989 241.288794 
L 572.3086 240.297366 
L 574.57731 239.484375 
L 576.846019 238.871921 
L 579.114729 238.480073 
L 581.383438 238.325958 
L 583.652148 238.423005 
L 585.920858 238.78046 
L 588.189567 239.403214 
L 590.458277 240.291926 
L 592.726986 241.443374 
L 594.995696 242.850945 
L 597.264405 244.505178 
L 599.533115 246.394296 
L 601.801825 248.504685 
L 604.070534 250.82131 
L 606.339244 253.328057 
L 608.607953 256.00802 
L 610.876663 258.843737 
L 613.145373 261.817391 
L 615.414082 264.910982 
L 617.682792 268.106479 
L 619.951501 271.385961 
L 622.220211 274.731747 
L 624.48892 278.126511 
L 624.48892 89.107639 
L 624.48892 89.107639 
L 622.220211 93.744773 
L 619.951501 98.423058 
L 617.682792 103.125066 
L 615.414082 107.83251 
L 613.145373 112.526342 
L 610.876663 117.186859 
L 608.607953 121.793823 
L 606.339244 126.326602 
L 604.070534 130.764325 
L 601.801825 135.086078 
L 599.533115 139.271129 
L 597.264405 143.299214 
L 594.995696 147.150882 
L 592.726986 150.807913 
L 590.458277 154.253804 
L 588.189567 157.474315 
L 585.920858 160.458023 
L 583.652148 163.196837 
L 581.383438 165.686363 
L 579.114729 167.92606 
L 576.846019 169.91909 
L 574.57731 171.671867 
L 572.3086 173.193341 
L 570.03989 174.494119 
L 567.771181 175.585572 
L 565.502471 176.479055 
L 563.233762 177.185336 
L 560.965052 177.714263 
L 558.696342 178.074684 
L 556.427633 178.274547 
L 554.158923 178.321131 
L 551.890214 178.221337 
L 549.621504 177.981983 
L 547.352795 177.61006 
L 545.084085 177.112917 
L 542.815375 176.498378 
L 540.546666 175.774767 
L 538.277956 174.950869 
L 536.009247 174.03583 
L 533.740537 173.039003 
L 531.471827 171.969767 
L 529.203118 170.837321 
L 526.934408 169.650467 
L 524.665699 168.417395 
L 522.396989 167.145469 
L 520.12828 165.841027 
L 517.85957 164.509194 
L 515.59086 163.153714 
L 513.322151 161.7768 
L 511.053441 160.37901 
L 508.784732 158.959142 
L 506.516022 157.514156 
L 504.247312 156.03913 
L 501.978603 154.527246 
L 499.709893 152.969816 
L 497.441184 151.356357 
L 495.172474 149.674734 
L 492.903765 147.911368 
L 490.635055 146.051556 
L 488.366345 144.07989 
L 486.097636 141.980828 
L 483.828926 139.739403 
L 481.560217 137.342074 
L 479.291507 134.77771 
L 477.022797 132.038617 
L 474.754088 129.121552 
L 472.485378 126.028588 
L 470.216669 122.767715 
L 467.947959 119.353087 
L 465.679249 115.804851 
L 463.41054 112.148573 
L 461.14183 108.414354 
L 458.873121 104.635715 
L 456.604411 100.848417 
L 454.335702 97.089305 
L 452.066992 93.395259 
L 449.798282 89.802315 
L 447.529573 86.344958 
L 445.260863 83.05557 
L 442.992154 79.964044 
L 440.723444 77.097494 
L 438.454734 74.48008 
L 436.186025 72.132885 
L 433.917315 70.073857 
L 431.648606 68.317778 
L 429.379896 66.876263 
L 427.111187 65.757775 
L 424.842477 64.967652 
L 422.573767 64.508143 
L 420.305058 64.378454 
L 418.036348 64.574799 
L 415.767639 65.090477 
L 413.498929 65.915956 
L 411.230219 67.039003 
L 408.96151 68.444859 
L 406.6928 70.116473 
L 404.424091 72.034838 
L 402.155381 74.179413 
L 399.886672 76.528673 
L 397.617962 79.060773 
L 395.349252 81.754286 
L 393.080543 84.588998 
L 390.811833 87.546655 
L 388.543124 90.611582 
L 386.274414 93.7711 
L 384.005704 97.015662 
L 381.736995 100.338708 
L 379.468285 103.736266 
L 377.199576 107.206366 
L 374.930866 110.748364 
L 372.662156 114.362264 
L 370.393447 118.048089 
L 368.124737 121.805365 
L 365.856028 125.632709 
L 363.587318 129.527545 
L 361.318609 133.485898 
L 359.049899 137.502279 
L 356.781189 141.569622 
L 354.51248 145.679259 
L 352.24377 149.820924 
L 349.975061 153.982771 
L 347.706351 158.151399 
L 345.437641 162.311894 
L 343.168932 166.447865 
L 340.900222 170.541496 
L 338.631513 174.573614 
L 336.362803 178.523764 
L 334.094094 182.370326 
L 331.825384 186.090653 
L 329.556674 189.661269 
L 327.287965 193.058121 
L 325.019255 196.256907 
L 322.750546 199.233487 
L 320.481836 201.964393 
L 318.213126 204.427425 
L 315.944417 206.602333 
L 313.675707 208.471555 
L 311.406998 210.020963 
L 309.138288 211.24056 
L 306.869578 212.125061 
L 304.600869 212.674285 
L 302.332159 212.893314 
L 300.06345 212.792381 
L 297.79474 212.386498 
L 295.526031 211.694866 
L 293.257321 210.740107 
L 290.988611 209.547411 
L 288.719902 208.143643 
L 286.451192 206.556479 
L 284.182483 204.813599 
L 281.913773 202.941977 
L 279.645063 200.967253 
L 277.376354 198.913213 
L 275.107644 196.801355 
L 272.838935 194.650541 
L 270.570225 192.476734 
L 268.301516 190.292806 
L 266.032806 188.108428 
L 263.764096 185.930041 
L 261.495387 183.760926 
L 259.226677 181.601369 
L 256.957968 179.448957 
L 254.689258 177.298995 
L 252.420548 175.145079 
L 250.151839 172.979791 
L 247.883129 170.795531 
L 245.61442 168.58541 
L 243.34571 166.344162 
L 241.077001 164.068978 
L 238.808291 161.760173 
L 236.539581 159.421604 
L 234.270872 157.06078 
L 232.002162 154.688655 
L 229.733453 152.31915 
L 227.464743 149.968442 
L 225.196033 147.654142 
L 222.927324 145.394425 
L 220.658614 143.20721 
L 218.389905 141.109414 
L 216.121195 139.116343 
L 213.852485 137.241207 
L 211.583776 135.494765 
L 209.315066 133.885092 
L 207.046357 132.417446 
L 204.777647 131.094227 
L 202.508938 129.915013 
L 200.240228 128.876651 
L 197.971518 127.973421 
L 195.702809 127.197229 
L 193.434099 126.537862 
L 191.16539 125.98327 
L 188.89668 125.519897 
L 186.62797 125.13304 
L 184.359261 124.807236 
L 182.090551 124.526682 
L 179.821842 124.275664 
L 177.553132 124.038987 
L 175.284423 123.802395 
L 173.015713 123.55295 
L 170.747003 123.279356 
L 168.478294 122.972185 
L 166.209584 122.623997 
L 163.940875 122.229315 
L 161.672165 121.784452 
L 159.403455 121.287177 
L 157.134746 120.736233 
L 154.866036 120.130733 
L 152.597327 119.469456 
L 150.328617 118.750118 
L 148.059908 117.96865 
L 145.791198 117.118577 
L 143.522488 116.190569 
L 141.253779 115.172247 
L 138.985069 114.048334 
L 136.71636 112.801202 
L 134.44765 111.41182 
L 132.17894 109.86107 
L 129.910231 108.131272 
L 127.641521 106.207726 
L 125.372812 104.080039 
L 123.104102 101.743035 
L 120.835392 99.197141 
L 118.566683 96.448261 
L 116.297973 93.507225 
L 114.029264 90.388978 
L 111.760554 87.111653 
L 109.491845 83.695662 
L 107.223135 80.162881 
L 104.954425 76.535958 
L 102.685716 72.837761 
L 100.417006 69.090949 
L 98.148297 65.31764 
L 95.879587 61.539163 
L 93.610877 57.77587 
L 91.342168 54.046994 
L 89.073458 50.370546 
L 86.804749 46.763226 
L 84.536039 43.240372 
L 82.26733 39.815909 
z
" clip-path="url(#p0471d39de1)" style="fill: #1f77b4; fill-opacity: 0.22"/>
   </g>
   <g id="matplotlib.axis_1">
    <g id="xtick_1">
     <g id="line2d_1">
      <path d="M 82.26733 305.8 
L 82.26733 27.15 
" clip-path="url(#p0471d39de1)" style="fill: none; stroke: #b0b0b0; stroke-opacity: 0.22; stroke-width: 0.8; stroke-linecap: square"/>
     </g>
     <g id="line2d_2">
      <defs>
       <path id="ma2b236ef0d" d="M 0 0 
L 0 3.5 
" style="stroke: #000000; stroke-width: 0.8"/>
      </defs>
      <g>
       <use xlink:href="#ma2b236ef0d" x="82.26733" y="305.8" style="stroke: #000000; stroke-width: 0.8"/>
      </g>
     </g>
     <g id="text_1">
      <!-- 0 -->
      <g transform="translate(79.08608 320.398438) scale(0.1 -0.1)">
       <defs>
        <path id="DejaVuSans-30" d="M 2034 4250 
Q 1547 4250 1301 3770 
Q 1056 3291 1056 2328 
Q 1056 1369 1301 889 
Q 1547 409 2034 409 
Q 2525 409 2770 889 
Q 3016 1369 3016 2328 
Q 3016 3291 2770 3770 
Q 2525 4250 2034 4250 
z
M 2034 4750 
Q 2819 4750 3233 4129 
Q 3647 3509 3647 2328 
Q 3647 1150 3233 529 
Q 2819 -91 2034 -91 
Q 1250 -91 836 529 
Q 422 1150 422 2328 
Q 422 3509 836 4129 
Q 1250 4750 2034 4750 
z
" transform="scale(0.015625)"/>
       </defs>
       <use xlink:href="#DejaVuSans-30"/>
      </g>
     </g>
    </g>
    <g id="xtick_2">
     <g id="line2d_3">
      <path d="M 190.711648 305.8 
L 190.711648 27.15 
" clip-path="url(#p0471d39de1)" style="fill: none; stroke: #b0b0b0; stroke-opacity: 0.22; stroke-width: 0.8; stroke-linecap: square"/>
     </g>
     <g id="line2d_4">
      <g>
       <use xlink:href="#ma2b236ef0d" x="190.711648" y="305.8" style="stroke: #000000; stroke-width: 0.8"/>
      </g>
     </g>
     <g id="text_2">
      <!-- 2 -->
      <g transform="translate(187.530398 320.398438) scale(0.1 -0.1)">
       <defs>
        <path id="DejaVuSans-32" d="M 1228 531 
L 3431 531 
L 3431 0 
L 469 0 
L 469 531 
Q 828 903 1448 1529 
Q 2069 2156 2228 2338 
Q 2531 2678 2651 2914 
Q 2772 3150 2772 3378 
Q 2772 3750 2511 3984 
Q 2250 4219 1831 4219 
Q 1534 4219 1204 4116 
Q 875 4013 500 3803 
L 500 4441 
Q 881 4594 1212 4672 
Q 1544 4750 1819 4750 
Q 2544 4750 2975 4387 
Q 3406 4025 3406 3419 
Q 3406 3131 3298 2873 
Q 3191 2616 2906 2266 
Q 2828 2175 2409 1742 
Q 1991 1309 1228 531 
z
" transform="scale(0.015625)"/>
       </defs>
       <use xlink:href="#DejaVuSans-32"/>
      </g>
     </g>
    </g>
    <g id="xtick_3">
     <g id="line2d_5">
      <path d="M 299.155966 305.8 
L 299.155966 27.15 
" clip-path="url(#p0471d39de1)" style="fill: none; stroke: #b0b0b0; stroke-opacity: 0.22; stroke-width: 0.8; stroke-linecap: square"/>
     </g>
     <g id="line2d_6">
      <g>
       <use xlink:href="#ma2b236ef0d" x="299.155966" y="305.8" style="stroke: #000000; stroke-width: 0.8"/>
      </g>
     </g>
     <g id="text_3">
      <!-- 4 -->
      <g transform="translate(295.974716 320.398438) scale(0.1 -0.1)">
       <defs>
        <path id="DejaVuSans-34" d="M 2419 4116 
L 825 1625 
L 2419 1625 
L 2419 4116 
z
M 2253 4666 
L 3047 4666 
L 3047 1625 
L 3713 1625 
L 3713 1100 
L 3047 1100 
L 3047 0 
L 2419 0 
L 2419 1100 
L 313 1100 
L 313 1709 
L 2253 4666 
z
" transform="scale(0.015625)"/>
       </defs>
       <use xlink:href="#DejaVuSans-34"/>
      </g>
     </g>
    </g>
    <g id="xtick_4">
     <g id="line2d_7">
      <path d="M 407.600284 305.8 
L 407.600284 27.15 
" clip-path="url(#p0471d39de1)" style="fill: none; stroke: #b0b0b0; stroke-opacity: 0.22; stroke-width: 0.8; stroke-linecap: square"/>
     </g>
     <g id="line2d_8">
      <g>
       <use xlink:href="#ma2b236ef0d" x="407.600284" y="305.8" style="stroke: #000000; stroke-width: 0.8"/>
      </g>
     </g>
     <g id="text_4">
      <!-- 6 -->
      <g transform="translate(404.419034 320.398438) scale(0.1 -0.1)">
       <defs>
        <path id="DejaVuSans-36" d="M 2113 2584 
Q 1688 2584 1439 2293 
Q 1191 2003 1191 1497 
Q 1191 994 1439 701 
Q 1688 409 2113 409 
Q 2538 409 2786 701 
Q 3034 994 3034 1497 
Q 3034 2003 2786 2293 
Q 2538 2584 2113 2584 
z
M 3366 4563 
L 3366 3988 
Q 3128 4100 2886 4159 
Q 2644 4219 2406 4219 
Q 1781 4219 1451 3797 
Q 1122 3375 1075 2522 
Q 1259 2794 1537 2939 
Q 1816 3084 2150 3084 
Q 2853 3084 3261 2657 
Q 3669 2231 3669 1497 
Q 3669 778 3244 343 
Q 2819 -91 2113 -91 
Q 1303 -91 875 529 
Q 447 1150 447 2328 
Q 447 3434 972 4092 
Q 1497 4750 2381 4750 
Q 2619 4750 2861 4703 
Q 3103 4656 3366 4563 
z
" transform="scale(0.015625)"/>
       </defs>
       <use xlink:href="#DejaVuSans-36"/>
      </g>
     </g>
    </g>
    <g id="xtick_5">
     <g id="line2d_9">
      <path d="M 516.044602 305.8 
L 516.044602 27.15 
" clip-path="url(#p0471d39de1)" style="fill: none; stroke: #b0b0b0; stroke-opacity: 0.22; stroke-width: 0.8; stroke-linecap: square"/>
     </g>
     <g id="line2d_10">
      <g>
       <use xlink:href="#ma2b236ef0d" x="516.044602" y="305.8" style="stroke: #000000; stroke-width: 0.8"/>
      </g>
     </g>
     <g id="text_5">
      <!-- 8 -->
      <g transform="translate(512.863352 320.398438) scale(0.1 -0.1)">
       <defs>
        <path id="DejaVuSans-38" d="M 2034 2216 
Q 1584 2216 1326 1975 
Q 1069 1734 1069 1313 
Q 1069 891 1326 650 
Q 1584 409 2034 409 
Q 2484 409 2743 651 
Q 3003 894 3003 1313 
Q 3003 1734 2745 1975 
Q 2488 2216 2034 2216 
z
M 1403 2484 
Q 997 2584 770 2862 
Q 544 3141 544 3541 
Q 544 4100 942 4425 
Q 1341 4750 2034 4750 
Q 2731 4750 3128 4425 
Q 3525 4100 3525 3541 
Q 3525 3141 3298 2862 
Q 3072 2584 2669 2484 
Q 3125 2378 3379 2068 
Q 3634 1759 3634 1313 
Q 3634 634 3220 271 
Q 2806 -91 2034 -91 
Q 1263 -91 848 271 
Q 434 634 434 1313 
Q 434 1759 690 2068 
Q 947 2378 1403 2484 
z
M 1172 3481 
Q 1172 3119 1398 2916 
Q 1625 2713 2034 2713 
Q 2441 2713 2670 2916 
Q 2900 3119 2900 3481 
Q 2900 3844 2670 4047 
Q 2441 4250 2034 4250 
Q 1625 4250 1398 4047 
Q 1172 3844 1172 3481 
z
" transform="scale(0.015625)"/>
       </defs>
       <use xlink:href="#DejaVuSans-38"/>
      </g>
     </g>
    </g>
    <g id="xtick_6">
     <g id="line2d_11">
      <path d="M 624.48892 305.8 
L 624.48892 27.15 
" clip-path="url(#p0471d39de1)" style="fill: none; stroke: #b0b0b0; stroke-opacity: 0.22; stroke-width: 0.8; stroke-linecap: square"/>
     </g>
     <g id="line2d_12">
      <g>
       <use xlink:href="#ma2b236ef0d" x="624.48892" y="305.8" style="stroke: #000000; stroke-width: 0.8"/>
      </g>
     </g>
     <g id="text_6">
      <!-- 10 -->
      <g transform="translate(618.12642 320.398438) scale(0.1 -0.1)">
       <defs>
        <path id="DejaVuSans-31" d="M 794 531 
L 1825 531 
L 1825 4091 
L 703 3866 
L 703 4441 
L 1819 4666 
L 2450 4666 
L 2450 531 
L 3481 531 
L 3481 0 
L 794 0 
L 794 531 
z
" transform="scale(0.015625)"/>
       </defs>
       <use xlink:href="#DejaVuSans-31"/>
       <use xlink:href="#DejaVuSans-30" transform="translate(63.623047 0)"/>
      </g>
     </g>
    </g>
    <g id="text_7">
     <!-- Tunable recommendation parameter (normalized) -->
     <g transform="translate(228.560156 334.076562) scale(0.1 -0.1)">
      <defs>
       <path id="DejaVuSans-54" d="M -19 4666 
L 3928 4666 
L 3928 4134 
L 2272 4134 
L 2272 0 
L 1638 0 
L 1638 4134 
L -19 4134 
L -19 4666 
z
" transform="scale(0.015625)"/>
       <path id="DejaVuSans-75" d="M 544 1381 
L 544 3500 
L 1119 3500 
L 1119 1403 
Q 1119 906 1312 657 
Q 1506 409 1894 409 
Q 2359 409 2629 706 
Q 2900 1003 2900 1516 
L 2900 3500 
L 3475 3500 
L 3475 0 
L 2900 0 
L 2900 538 
Q 2691 219 2414 64 
Q 2138 -91 1772 -91 
Q 1169 -91 856 284 
Q 544 659 544 1381 
z
M 1991 3584 
L 1991 3584 
z
" transform="scale(0.015625)"/>
       <path id="DejaVuSans-6e" d="M 3513 2113 
L 3513 0 
L 2938 0 
L 2938 2094 
Q 2938 2591 2744 2837 
Q 2550 3084 2163 3084 
Q 1697 3084 1428 2787 
Q 1159 2491 1159 1978 
L 1159 0 
L 581 0 
L 581 3500 
L 1159 3500 
L 1159 2956 
Q 1366 3272 1645 3428 
Q 1925 3584 2291 3584 
Q 2894 3584 3203 3211 
Q 3513 2838 3513 2113 
z
" transform="scale(0.015625)"/>
       <path id="DejaVuSans-61" d="M 2194 1759 
Q 1497 1759 1228 1600 
Q 959 1441 959 1056 
Q 959 750 1161 570 
Q 1363 391 1709 391 
Q 2188 391 2477 730 
Q 2766 1069 2766 1631 
L 2766 1759 
L 2194 1759 
z
M 3341 1997 
L 3341 0 
L 2766 0 
L 2766 531 
Q 2569 213 2275 61 
Q 1981 -91 1556 -91 
Q 1019 -91 701 211 
Q 384 513 384 1019 
Q 384 1609 779 1909 
Q 1175 2209 1959 2209 
L 2766 2209 
L 2766 2266 
Q 2766 2663 2505 2880 
Q 2244 3097 1772 3097 
Q 1472 3097 1187 3025 
Q 903 2953 641 2809 
L 641 3341 
Q 956 3463 1253 3523 
Q 1550 3584 1831 3584 
Q 2591 3584 2966 3190 
Q 3341 2797 3341 1997 
z
" transform="scale(0.015625)"/>
       <path id="DejaVuSans-62" d="M 3116 1747 
Q 3116 2381 2855 2742 
Q 2594 3103 2138 3103 
Q 1681 3103 1420 2742 
Q 1159 2381 1159 1747 
Q 1159 1113 1420 752 
Q 1681 391 2138 391 
Q 2594 391 2855 752 
Q 3116 1113 3116 1747 
z
M 1159 2969 
Q 1341 3281 1617 3432 
Q 1894 3584 2278 3584 
Q 2916 3584 3314 3078 
Q 3713 2572 3713 1747 
Q 3713 922 3314 415 
Q 2916 -91 2278 -91 
Q 1894 -91 1617 61 
Q 1341 213 1159 525 
L 1159 0 
L 581 0 
L 581 4863 
L 1159 4863 
L 1159 2969 
z
" transform="scale(0.015625)"/>
       <path id="DejaVuSans-6c" d="M 603 4863 
L 1178 4863 
L 1178 0 
L 603 0 
L 603 4863 
z
" transform="scale(0.015625)"/>
       <path id="DejaVuSans-65" d="M 3597 1894 
L 3597 1613 
L 953 1613 
Q 991 1019 1311 708 
Q 1631 397 2203 397 
Q 2534 397 2845 478 
Q 3156 559 3463 722 
L 3463 178 
Q 3153 47 2828 -22 
Q 2503 -91 2169 -91 
Q 1331 -91 842 396 
Q 353 884 353 1716 
Q 353 2575 817 3079 
Q 1281 3584 2069 3584 
Q 2775 3584 3186 3129 
Q 3597 2675 3597 1894 
z
M 3022 2063 
Q 3016 2534 2758 2815 
Q 2500 3097 2075 3097 
Q 1594 3097 1305 2825 
Q 1016 2553 972 2059 
L 3022 2063 
z
" transform="scale(0.015625)"/>
       <path id="DejaVuSans-20" transform="scale(0.015625)"/>
       <path id="DejaVuSans-72" d="M 2631 2963 
Q 2534 3019 2420 3045 
Q 2306 3072 2169 3072 
Q 1681 3072 1420 2755 
Q 1159 2438 1159 1844 
L 1159 0 
L 581 0 
L 581 3500 
L 1159 3500 
L 1159 2956 
Q 1341 3275 1631 3429 
Q 1922 3584 2338 3584 
Q 2397 3584 2469 3576 
Q 2541 3569 2628 3553 
L 2631 2963 
z
" transform="scale(0.015625)"/>
       <path id="DejaVuSans-63" d="M 3122 3366 
L 3122 2828 
Q 2878 2963 2633 3030 
Q 2388 3097 2138 3097 
Q 1578 3097 1268 2742 
Q 959 2388 959 1747 
Q 959 1106 1268 751 
Q 1578 397 2138 397 
Q 2388 397 2633 464 
Q 2878 531 3122 666 
L 3122 134 
Q 2881 22 2623 -34 
Q 2366 -91 2075 -91 
Q 1284 -91 818 406 
Q 353 903 353 1747 
Q 353 2603 823 3093 
Q 1294 3584 2113 3584 
Q 2378 3584 2631 3529 
Q 2884 3475 3122 3366 
z
" transform="scale(0.015625)"/>
       <path id="DejaVuSans-6f" d="M 1959 3097 
Q 1497 3097 1228 2736 
Q 959 2375 959 1747 
Q 959 1119 1226 758 
Q 1494 397 1959 397 
Q 2419 397 2687 759 
Q 2956 1122 2956 1747 
Q 2956 2369 2687 2733 
Q 2419 3097 1959 3097 
z
M 1959 3584 
Q 2709 3584 3137 3096 
Q 3566 2609 3566 1747 
Q 3566 888 3137 398 
Q 2709 -91 1959 -91 
Q 1206 -91 779 398 
Q 353 888 353 1747 
Q 353 2609 779 3096 
Q 1206 3584 1959 3584 
z
" transform="scale(0.015625)"/>
       <path id="DejaVuSans-6d" d="M 3328 2828 
Q 3544 3216 3844 3400 
Q 4144 3584 4550 3584 
Q 5097 3584 5394 3201 
Q 5691 2819 5691 2113 
L 5691 0 
L 5113 0 
L 5113 2094 
Q 5113 2597 4934 2840 
Q 4756 3084 4391 3084 
Q 3944 3084 3684 2787 
Q 3425 2491 3425 1978 
L 3425 0 
L 2847 0 
L 2847 2094 
Q 2847 2600 2669 2842 
Q 2491 3084 2119 3084 
Q 1678 3084 1418 2786 
Q 1159 2488 1159 1978 
L 1159 0 
L 581 0 
L 581 3500 
L 1159 3500 
L 1159 2956 
Q 1356 3278 1631 3431 
Q 1906 3584 2284 3584 
Q 2666 3584 2933 3390 
Q 3200 3197 3328 2828 
z
" transform="scale(0.015625)"/>
       <path id="DejaVuSans-64" d="M 2906 2969 
L 2906 4863 
L 3481 4863 
L 3481 0 
L 2906 0 
L 2906 525 
Q 2725 213 2448 61 
Q 2172 -91 1784 -91 
Q 1150 -91 751 415 
Q 353 922 353 1747 
Q 353 2572 751 3078 
Q 1150 3584 1784 3584 
Q 2172 3584 2448 3432 
Q 2725 3281 2906 2969 
z
M 947 1747 
Q 947 1113 1208 752 
Q 1469 391 1925 391 
Q 2381 391 2643 752 
Q 2906 1113 2906 1747 
Q 2906 2381 2643 2742 
Q 2381 3103 1925 3103 
Q 1469 3103 1208 2742 
Q 947 2381 947 1747 
z
" transform="scale(0.015625)"/>
       <path id="DejaVuSans-74" d="M 1172 4494 
L 1172 3500 
L 2356 3500 
L 2356 3053 
L 1172 3053 
L 1172 1153 
Q 1172 725 1289 603 
Q 1406 481 1766 481 
L 2356 481 
L 2356 0 
L 1766 0 
Q 1100 0 847 248 
Q 594 497 594 1153 
L 594 3053 
L 172 3053 
L 172 3500 
L 594 3500 
L 594 4494 
L 1172 4494 
z
" transform="scale(0.015625)"/>
       <path id="DejaVuSans-69" d="M 603 3500 
L 1178 3500 
L 1178 0 
L 603 0 
L 603 3500 
z
M 603 4863 
L 1178 4863 
L 1178 4134 
L 603 4134 
L 603 4863 
z
" transform="scale(0.015625)"/>
       <path id="DejaVuSans-70" d="M 1159 525 
L 1159 -1331 
L 581 -1331 
L 581 3500 
L 1159 3500 
L 1159 2969 
Q 1341 3281 1617 3432 
Q 1894 3584 2278 3584 
Q 2916 3584 3314 3078 
Q 3713 2572 3713 1747 
Q 3713 922 3314 415 
Q 2916 -91 2278 -91 
Q 1894 -91 1617 61 
Q 1341 213 1159 525 
z
M 3116 1747 
Q 3116 2381 2855 2742 
Q 2594 3103 2138 3103 
Q 1681 3103 1420 2742 
Q 1159 2381 1159 1747 
Q 1159 1113 1420 752 
Q 1681 391 2138 391 
Q 2594 391 2855 752 
Q 3116 1113 3116 1747 
z
" transform="scale(0.015625)"/>
       <path id="DejaVuSans-28" d="M 1984 4856 
Q 1566 4138 1362 3434 
Q 1159 2731 1159 2009 
Q 1159 1288 1364 580 
Q 1569 -128 1984 -844 
L 1484 -844 
Q 1016 -109 783 600 
Q 550 1309 550 2009 
Q 550 2706 781 3412 
Q 1013 4119 1484 4856 
L 1984 4856 
z
" transform="scale(0.015625)"/>
       <path id="DejaVuSans-7a" d="M 353 3500 
L 3084 3500 
L 3084 2975 
L 922 459 
L 3084 459 
L 3084 0 
L 275 0 
L 275 525 
L 2438 3041 
L 353 3041 
L 353 3500 
z
" transform="scale(0.015625)"/>
       <path id="DejaVuSans-29" d="M 513 4856 
L 1013 4856 
Q 1481 4119 1714 3412 
Q 1947 2706 1947 2009 
Q 1947 1309 1714 600 
Q 1481 -109 1013 -844 
L 513 -844 
Q 928 -128 1133 580 
Q 1338 1288 1338 2009 
Q 1338 2731 1133 3434 
Q 928 4138 513 4856 
z
" transform="scale(0.015625)"/>
      </defs>
      <use xlink:href="#DejaVuSans-54"/>
      <use xlink:href="#DejaVuSans-75" transform="translate(45.958984 0)"/>
      <use xlink:href="#DejaVuSans-6e" transform="translate(109.337891 0)"/>
      <use xlink:href="#DejaVuSans-61" transform="translate(172.716797 0)"/>
      <use xlink:href="#DejaVuSans-62" transform="translate(233.996094 0)"/>
      <use xlink:href="#DejaVuSans-6c" transform="translate(297.472656 0)"/>
      <use xlink:href="#DejaVuSans-65" transform="translate(325.255859 0)"/>
      <use xlink:href="#DejaVuSans-20" transform="translate(386.779297 0)"/>
      <use xlink:href="#DejaVuSans-72" transform="translate(418.566406 0)"/>
      <use xlink:href="#DejaVuSans-65" transform="translate(457.429688 0)"/>
      <use xlink:href="#DejaVuSans-63" transform="translate(518.953125 0)"/>
      <use xlink:href="#DejaVuSans-6f" transform="translate(573.933594 0)"/>
      <use xlink:href="#DejaVuSans-6d" transform="translate(635.115234 0)"/>
      <use xlink:href="#DejaVuSans-6d" transform="translate(732.527344 0)"/>
      <use xlink:href="#DejaVuSans-65" transform="translate(829.939453 0)"/>
      <use xlink:href="#DejaVuSans-6e" transform="translate(891.462891 0)"/>
      <use xlink:href="#DejaVuSans-64" transform="translate(954.841797 0)"/>
      <use xlink:href="#DejaVuSans-61" transform="translate(1018.318359 0)"/>
      <use xlink:href="#DejaVuSans-74" transform="translate(1079.597656 0)"/>
      <use xlink:href="#DejaVuSans-69" transform="translate(1118.806641 0)"/>
      <use xlink:href="#DejaVuSans-6f" transform="translate(1146.589844 0)"/>
      <use xlink:href="#DejaVuSans-6e" transform="translate(1207.771484 0)"/>
      <use xlink:href="#DejaVuSans-20" transform="translate(1271.150391 0)"/>
      <use xlink:href="#DejaVuSans-70" transform="translate(1302.9375 0)"/>
      <use xlink:href="#DejaVuSans-61" transform="translate(1366.414062 0)"/>
      <use xlink:href="#DejaVuSans-72" transform="translate(1427.693359 0)"/>
      <use xlink:href="#DejaVuSans-61" transform="translate(1468.806641 0)"/>
      <use xlink:href="#DejaVuSans-6d" transform="translate(1530.085938 0)"/>
      <use xlink:href="#DejaVuSans-65" transform="translate(1627.498047 0)"/>
      <use xlink:href="#DejaVuSans-74" transform="translate(1689.021484 0)"/>
      <use xlink:href="#DejaVuSans-65" transform="translate(1728.230469 0)"/>
      <use xlink:href="#DejaVuSans-72" transform="translate(1789.753906 0)"/>
      <use xlink:href="#DejaVuSans-20" transform="translate(1830.867188 0)"/>
      <use xlink:href="#DejaVuSans-28" transform="translate(1862.654297 0)"/>
      <use xlink:href="#DejaVuSans-6e" transform="translate(1901.667969 0)"/>
      <use xlink:href="#DejaVuSans-6f" transform="translate(1965.046875 0)"/>
      <use xlink:href="#DejaVuSans-72" transform="translate(2026.228516 0)"/>
      <use xlink:href="#DejaVuSans-6d" transform="translate(2065.591797 0)"/>
      <use xlink:href="#DejaVuSans-61" transform="translate(2163.003906 0)"/>
      <use xlink:href="#DejaVuSans-6c" transform="translate(2224.283203 0)"/>
      <use xlink:href="#DejaVuSans-69" transform="translate(2252.066406 0)"/>
      <use xlink:href="#DejaVuSans-7a" transform="translate(2279.849609 0)"/>
      <use xlink:href="#DejaVuSans-65" transform="translate(2332.339844 0)"/>
      <use xlink:href="#DejaVuSans-64" transform="translate(2393.863281 0)"/>
      <use xlink:href="#DejaVuSans-29" transform="translate(2457.339844 0)"/>
     </g>
    </g>
   </g>
   <g id="matplotlib.axis_2">
    <g id="ytick_1">
     <g id="line2d_13">
      <path d="M 55.15625 272.687884 
L 651.6 272.687884 
" clip-path="url(#p0471d39de1)" style="fill: none; stroke: #b0b0b0; stroke-opacity: 0.22; stroke-width: 0.8; stroke-linecap: square"/>
     </g>
     <g id="line2d_14">
      <defs>
       <path id="m774a9a8df7" d="M 0 0 
L -3.5 0 
" style="stroke: #000000; stroke-width: 0.8"/>
      </defs>
      <g>
       <use xlink:href="#m774a9a8df7" x="55.15625" y="272.687884" style="stroke: #000000; stroke-width: 0.8"/>
      </g>
     </g>
     <g id="text_8">
      <!-- −1.0 -->
      <g transform="translate(23.873437 276.487103) scale(0.1 -0.1)">
       <defs>
        <path id="DejaVuSans-2212" d="M 678 2272 
L 4684 2272 
L 4684 1741 
L 678 1741 
L 678 2272 
z
" transform="scale(0.015625)"/>
        <path id="DejaVuSans-2e" d="M 684 794 
L 1344 794 
L 1344 0 
L 684 0 
L 684 794 
z
" transform="scale(0.015625)"/>
       </defs>
       <use xlink:href="#DejaVuSans-2212"/>
       <use xlink:href="#DejaVuSans-31" transform="translate(83.789062 0)"/>
       <use xlink:href="#DejaVuSans-2e" transform="translate(147.412109 0)"/>
       <use xlink:href="#DejaVuSans-30" transform="translate(179.199219 0)"/>
      </g>
     </g>
    </g>
    <g id="ytick_2">
     <g id="line2d_15">
      <path d="M 55.15625 227.75917 
L 651.6 227.75917 
" clip-path="url(#p0471d39de1)" style="fill: none; stroke: #b0b0b0; stroke-opacity: 0.22; stroke-width: 0.8; stroke-linecap: square"/>
     </g>
     <g id="line2d_16">
      <g>
       <use xlink:href="#m774a9a8df7" x="55.15625" y="227.75917" style="stroke: #000000; stroke-width: 0.8"/>
      </g>
     </g>
     <g id="text_9">
      <!-- −0.5 -->
      <g transform="translate(23.873437 231.558389) scale(0.1 -0.1)">
       <defs>
        <path id="DejaVuSans-35" d="M 691 4666 
L 3169 4666 
L 3169 4134 
L 1269 4134 
L 1269 2991 
Q 1406 3038 1543 3061 
Q 1681 3084 1819 3084 
Q 2600 3084 3056 2656 
Q 3513 2228 3513 1497 
Q 3513 744 3044 326 
Q 2575 -91 1722 -91 
Q 1428 -91 1123 -41 
Q 819 9 494 109 
L 494 744 
Q 775 591 1075 516 
Q 1375 441 1709 441 
Q 2250 441 2565 725 
Q 2881 1009 2881 1497 
Q 2881 1984 2565 2268 
Q 2250 2553 1709 2553 
Q 1456 2553 1204 2497 
Q 953 2441 691 2322 
L 691 4666 
z
" transform="scale(0.015625)"/>
       </defs>
       <use xlink:href="#DejaVuSans-2212"/>
       <use xlink:href="#DejaVuSans-30" transform="translate(83.789062 0)"/>
       <use xlink:href="#DejaVuSans-2e" transform="translate(147.412109 0)"/>
       <use xlink:href="#DejaVuSans-35" transform="translate(179.199219 0)"/>
      </g>
     </g>
    </g>
    <g id="ytick_3">
     <g id="line2d_17">
      <path d="M 55.15625 182.830455 
L 651.6 182.830455 
" clip-path="url(#p0471d39de1)" style="fill: none; stroke: #b0b0b0; stroke-opacity: 0.22; stroke-width: 0.8; stroke-linecap: square"/>
     </g>
     <g id="line2d_18">
      <g>
       <use xlink:href="#m774a9a8df7" x="55.15625" y="182.830455" style="stroke: #000000; stroke-width: 0.8"/>
      </g>
     </g>
     <g id="text_10">
      <!-- 0.0 -->
      <g transform="translate(32.253125 186.629674) scale(0.1 -0.1)">
       <use xlink:href="#DejaVuSans-30"/>
       <use xlink:href="#DejaVuSans-2e" transform="translate(63.623047 0)"/>
       <use xlink:href="#DejaVuSans-30" transform="translate(95.410156 0)"/>
      </g>
     </g>
    </g>
    <g id="ytick_4">
     <g id="line2d_19">
      <path d="M 55.15625 137.90174 
L 651.6 137.90174 
" clip-path="url(#p0471d39de1)" style="fill: none; stroke: #b0b0b0; stroke-opacity: 0.22; stroke-width: 0.8; stroke-linecap: square"/>
     </g>
     <g id="line2d_20">
      <g>
       <use xlink:href="#m774a9a8df7" x="55.15625" y="137.90174" style="stroke: #000000; stroke-width: 0.8"/>
      </g>
     </g>
     <g id="text_11">
      <!-- 0.5 -->
      <g transform="translate(32.253125 141.700959) scale(0.1 -0.1)">
       <use xlink:href="#DejaVuSans-30"/>
       <use xlink:href="#DejaVuSans-2e" transform="translate(63.623047 0)"/>
       <use xlink:href="#DejaVuSans-35" transform="translate(95.410156 0)"/>
      </g>
     </g>
    </g>
    <g id="ytick_5">
     <g id="line2d_21">
      <path d="M 55.15625 92.973026 
L 651.6 92.973026 
" clip-path="url(#p0471d39de1)" style="fill: none; stroke: #b0b0b0; stroke-opacity: 0.22; stroke-width: 0.8; stroke-linecap: square"/>
     </g>
     <g id="line2d_22">
      <g>
       <use xlink:href="#m774a9a8df7" x="55.15625" y="92.973026" style="stroke: #000000; stroke-width: 0.8"/>
      </g>
     </g>
     <g id="text_12">
      <!-- 1.0 -->
      <g transform="translate(32.253125 96.772245) scale(0.1 -0.1)">
       <use xlink:href="#DejaVuSans-31"/>
       <use xlink:href="#DejaVuSans-2e" transform="translate(63.623047 0)"/>
       <use xlink:href="#DejaVuSans-30" transform="translate(95.410156 0)"/>
      </g>
     </g>
    </g>
    <g id="ytick_6">
     <g id="line2d_23">
      <path d="M 55.15625 48.044311 
L 651.6 48.044311 
" clip-path="url(#p0471d39de1)" style="fill: none; stroke: #b0b0b0; stroke-opacity: 0.22; stroke-width: 0.8; stroke-linecap: square"/>
     </g>
     <g id="line2d_24">
      <g>
       <use xlink:href="#m774a9a8df7" x="55.15625" y="48.044311" style="stroke: #000000; stroke-width: 0.8"/>
      </g>
     </g>
     <g id="text_13">
      <!-- 1.5 -->
      <g transform="translate(32.253125 51.84353) scale(0.1 -0.1)">
       <use xlink:href="#DejaVuSans-31"/>
       <use xlink:href="#DejaVuSans-2e" transform="translate(63.623047 0)"/>
       <use xlink:href="#DejaVuSans-35" transform="translate(95.410156 0)"/>
      </g>
     </g>
    </g>
    <g id="text_14">
     <!-- Normalized objective -->
     <g transform="translate(17.79375 219.253125) rotate(-90) scale(0.1 -0.1)">
      <defs>
       <path id="DejaVuSans-4e" d="M 628 4666 
L 1478 4666 
L 3547 763 
L 3547 4666 
L 4159 4666 
L 4159 0 
L 3309 0 
L 1241 3903 
L 1241 0 
L 628 0 
L 628 4666 
z
" transform="scale(0.015625)"/>
       <path id="DejaVuSans-6a" d="M 603 3500 
L 1178 3500 
L 1178 -63 
Q 1178 -731 923 -1031 
Q 669 -1331 103 -1331 
L -116 -1331 
L -116 -844 
L 38 -844 
Q 366 -844 484 -692 
Q 603 -541 603 -63 
L 603 3500 
z
M 603 4863 
L 1178 4863 
L 1178 4134 
L 603 4134 
L 603 4863 
z
" transform="scale(0.015625)"/>
       <path id="DejaVuSans-76" d="M 191 3500 
L 800 3500 
L 1894 563 
L 2988 3500 
L 3597 3500 
L 2284 0 
L 1503 0 
L 191 3500 
z
" transform="scale(0.015625)"/>
      </defs>
      <use xlink:href="#DejaVuSans-4e"/>
      <use xlink:href="#DejaVuSans-6f" transform="translate(74.804688 0)"/>
      <use xlink:href="#DejaVuSans-72" transform="translate(135.986328 0)"/>
      <use xlink:href="#DejaVuSans-6d" transform="translate(175.349609 0)"/>
      <use xlink:href="#DejaVuSans-61" transform="translate(272.761719 0)"/>
      <use xlink:href="#DejaVuSans-6c" transform="translate(334.041016 0)"/>
      <use xlink:href="#DejaVuSans-69" transform="translate(361.824219 0)"/>
      <use xlink:href="#DejaVuSans-7a" transform="translate(389.607422 0)"/>
      <use xlink:href="#DejaVuSans-65" transform="translate(442.097656 0)"/>
      <use xlink:href="#DejaVuSans-64" transform="translate(503.621094 0)"/>
      <use xlink:href="#DejaVuSans-20" transform="translate(567.097656 0)"/>
      <use xlink:href="#DejaVuSans-6f" transform="translate(598.884766 0)"/>
      <use xlink:href="#DejaVuSans-62" transform="translate(660.066406 0)"/>
      <use xlink:href="#DejaVuSans-6a" transform="translate(723.542969 0)"/>
      <use xlink:href="#DejaVuSans-65" transform="translate(751.326172 0)"/>
      <use xlink:href="#DejaVuSans-63" transform="translate(812.849609 0)"/>
      <use xlink:href="#DejaVuSans-74" transform="translate(867.830078 0)"/>
      <use xlink:href="#DejaVuSans-69" transform="translate(907.039062 0)"/>
      <use xlink:href="#DejaVuSans-76" transform="translate(934.822266 0)"/>
      <use xlink:href="#DejaVuSans-65" transform="translate(994.001953 0)"/>
     </g>
    </g>
   </g>
   <g id="line2d_25">
    <path d="M 82.26733 182.830455 
L 86.804749 176.24956 
L 89.073458 173.250775 
L 91.342168 170.453963 
L 93.610877 167.862911 
L 95.879587 165.479933 
L 98.148297 163.305898 
L 100.417006 161.340268 
L 102.685716 159.581151 
L 104.954425 158.025359 
L 107.223135 156.668476 
L 109.491845 155.504939 
L 111.760554 154.528121 
L 114.029264 153.730425 
L 116.297973 153.103388 
L 118.566683 152.637777 
L 120.835392 152.323708 
L 123.104102 152.150754 
L 125.372812 152.108061 
L 129.910231 152.368617 
L 134.44765 153.014478 
L 138.985069 153.955378 
L 143.522488 155.105227 
L 152.597327 157.727419 
L 163.940875 161.023746 
L 173.015713 163.390304 
L 193.434099 168.408067 
L 197.971518 169.774092 
L 202.508938 171.364043 
L 207.046357 173.242554 
L 211.583776 175.47025 
L 216.121195 178.100328 
L 220.658614 181.175338 
L 225.196033 184.724288 
L 229.733453 188.76017 
L 234.270872 193.278011 
L 238.808291 198.253537 
L 243.34571 203.642488 
L 247.883129 209.380647 
L 254.689258 218.455226 
L 268.301516 236.896505 
L 272.838935 242.644255 
L 277.376354 247.951686 
L 279.645063 250.394384 
L 281.913773 252.672338 
L 284.182483 254.767992 
L 286.451192 256.664352 
L 288.719902 258.345115 
L 290.988611 259.794799 
L 293.257321 260.998875 
L 295.526031 261.943881 
L 297.79474 262.617541 
L 300.06345 263.008873 
L 302.332159 263.108285 
L 304.600869 262.90767 
L 306.869578 262.400487 
L 309.138288 261.58183 
L 311.406998 260.448488 
L 313.675707 258.998995 
L 315.944417 257.23367 
L 318.213126 255.154633 
L 320.481836 252.765827 
L 322.750546 250.073007 
L 325.019255 247.083737 
L 327.287965 243.807353 
L 329.556674 240.254932 
L 331.825384 236.439238 
L 334.094094 232.374656 
L 338.631513 223.564017 
L 343.168932 213.967413 
L 347.706351 203.74926 
L 354.51248 187.655024 
L 365.856028 160.422148 
L 370.393447 149.970357 
L 374.930866 140.061929 
L 379.468285 130.875897 
L 381.736995 126.605256 
L 384.005704 122.574538 
L 386.274414 118.80077 
L 388.543124 115.299473 
L 390.811833 112.084576 
L 393.080543 109.168338 
L 395.349252 106.561282 
L 397.617962 104.27214 
L 399.886672 102.307817 
L 402.155381 100.673355 
L 404.424091 99.371925 
L 406.6928 98.40482 
L 408.96151 97.771468 
L 411.230219 97.469455 
L 413.498929 97.494559 
L 415.767639 97.840801 
L 418.036348 98.500505 
L 420.305058 99.464365 
L 422.573767 100.721534 
L 424.842477 102.259709 
L 427.111187 104.065235 
L 429.379896 106.123218 
L 431.648606 108.417635 
L 433.917315 110.931464 
L 436.186025 113.64681 
L 440.723444 119.606919 
L 445.260863 126.142528 
L 449.798282 133.093091 
L 458.873121 147.598207 
L 465.679249 158.40615 
L 470.216669 165.320218 
L 474.754088 171.86536 
L 479.291507 177.945839 
L 483.828926 183.486315 
L 488.366345 188.432829 
L 490.635055 190.672407 
L 492.903765 192.75304 
L 495.172474 194.673985 
L 497.441184 196.435752 
L 499.709893 198.040051 
L 501.978603 199.489732 
L 504.247312 200.788715 
L 506.516022 201.941907 
L 508.784732 202.955122 
L 511.053441 203.834984 
L 513.322151 204.58883 
L 517.85957 205.750771 
L 522.396989 206.509907 
L 526.934408 206.93971 
L 531.471827 207.114583 
L 538.277956 207.054526 
L 549.621504 206.59609 
L 560.965052 206.209557 
L 579.114729 205.727827 
L 583.652148 205.399778 
L 588.189567 204.862856 
L 592.726986 204.04121 
L 597.264405 202.856648 
L 599.533115 202.104069 
L 601.801825 201.232181 
L 604.070534 200.232139 
L 606.339244 199.095627 
L 608.607953 197.814956 
L 610.876663 196.383178 
L 613.145373 194.794178 
L 615.414082 193.042774 
L 617.682792 191.124798 
L 619.951501 189.037181 
L 622.220211 186.77802 
L 624.48892 184.346643 
L 624.48892 184.346643 
" clip-path="url(#p0471d39de1)" style="fill: none; stroke-dasharray: 6.66,2.88; stroke-dashoffset: 0; stroke: #1f77b4; stroke-width: 1.8"/>
   </g>
   <g id="line2d_26">
    <path d="M 82.26733 143.969472 
L 86.804749 142.827631 
L 91.342168 141.941919 
L 95.879587 141.331934 
L 100.417006 141.011425 
L 104.954425 140.987628 
L 109.491845 141.260839 
L 114.029264 141.824254 
L 118.566683 142.664099 
L 123.104102 143.760073 
L 127.641521 145.086104 
L 132.17894 146.611387 
L 138.985069 149.197469 
L 145.791198 152.03259 
L 177.553132 165.671429 
L 195.702809 173.182942 
L 202.508938 176.308188 
L 207.046357 178.59448 
L 211.583776 181.09148 
L 216.121195 183.836739 
L 220.658614 186.86145 
L 225.196033 190.188023 
L 229.733453 193.827896 
L 234.270872 197.779689 
L 238.808291 202.027788 
L 243.34571 206.541453 
L 250.151839 213.704652 
L 268.301516 233.32537 
L 272.838935 237.825271 
L 277.376354 241.941809 
L 281.913773 245.560265 
L 284.182483 247.147619 
L 286.451192 248.569038 
L 288.719902 249.811637 
L 290.988611 250.86316 
L 293.257321 251.712085 
L 295.526031 252.347719 
L 297.79474 252.760295 
L 300.06345 252.941056 
L 302.332159 252.88234 
L 304.600869 252.577649 
L 306.869578 252.021716 
L 309.138288 251.210565 
L 311.406998 250.141555 
L 313.675707 248.813423 
L 315.944417 247.226312 
L 318.213126 245.381791 
L 320.481836 243.282863 
L 322.750546 240.933969 
L 325.019255 238.340976 
L 327.287965 235.511154 
L 329.556674 232.453152 
L 331.825384 229.176953 
L 336.362803 222.016283 
L 340.900222 214.133682 
L 345.437641 205.651078 
L 349.975061 196.705086 
L 356.781189 182.743767 
L 368.124737 159.352059 
L 372.662156 150.420785 
L 377.199576 141.964496 
L 381.736995 134.125439 
L 386.274414 127.032676 
L 388.543124 123.802183 
L 390.811833 120.799282 
L 393.080543 118.035225 
L 395.349252 115.519997 
L 397.617962 113.26227 
L 399.886672 111.26937 
L 402.155381 109.547249 
L 404.424091 108.100463 
L 406.6928 106.932168 
L 408.96151 106.044114 
L 411.230219 105.436662 
L 413.498929 105.108792 
L 415.767639 105.058137 
L 418.036348 105.281015 
L 420.305058 105.772468 
L 422.573767 106.52632 
L 424.842477 107.535223 
L 427.111187 108.790729 
L 429.379896 110.283355 
L 431.648606 112.002656 
L 433.917315 113.937307 
L 436.186025 116.075181 
L 438.454734 118.40344 
L 442.992154 123.576709 
L 447.529573 129.343492 
L 452.066992 135.584482 
L 456.604411 142.177556 
L 465.679249 155.933808 
L 474.754088 169.679096 
L 479.291507 176.284178 
L 483.828926 182.588781 
L 488.366345 188.514971 
L 492.903765 193.996636 
L 497.441184 198.979869 
L 501.978603 203.42305 
L 506.516022 207.296655 
L 508.784732 209.01385 
L 511.053441 210.582842 
L 513.322151 212.003124 
L 515.59086 213.274836 
L 517.85957 214.398734 
L 520.12828 215.376164 
L 522.396989 216.209032 
L 524.665699 216.899771 
L 526.934408 217.45131 
L 529.203118 217.867042 
L 531.471827 218.15079 
L 533.740537 218.306775 
L 536.009247 218.33958 
L 538.277956 218.254117 
L 542.815375 217.74948 
L 547.352795 216.837476 
L 551.890214 215.565851 
L 556.427633 213.984464 
L 560.965052 212.14429 
L 565.502471 210.096476 
L 572.3086 206.745354 
L 585.920858 199.619242 
L 594.995696 195.000914 
L 601.801825 191.795382 
L 608.607953 188.900921 
L 613.145373 187.171866 
L 617.682792 185.615772 
L 622.220211 184.23826 
L 624.48892 183.617075 
L 624.48892 183.617075 
" clip-path="url(#p0471d39de1)" style="fill: none; stroke: #ff7f0e; stroke-width: 2.4; stroke-linecap: square"/>
   </g>
   <g id="line2d_27">
    <path d="M 82.26733 61.603134 
L 86.804749 66.858331 
L 91.342168 72.433178 
L 98.148297 81.17737 
L 107.223135 92.907289 
L 111.760554 98.490266 
L 116.297973 103.695207 
L 120.835392 108.397967 
L 123.104102 110.532313 
L 125.372812 112.513514 
L 127.641521 114.340448 
L 129.910231 116.016376 
L 134.44765 118.947939 
L 138.985069 121.40096 
L 143.522488 123.486235 
L 148.059908 125.299173 
L 152.597327 126.901474 
L 157.134746 128.32119 
L 161.672165 129.565582 
L 166.209584 130.638956 
L 173.015713 131.973008 
L 186.62797 134.385354 
L 191.16539 135.450323 
L 195.702809 136.816689 
L 200.240228 138.573268 
L 204.777647 140.786396 
L 209.315066 143.492706 
L 213.852485 146.694163 
L 218.389905 150.355984 
L 222.927324 154.408481 
L 227.464743 158.754182 
L 236.539581 167.882384 
L 247.883129 179.263067 
L 270.570225 201.500774 
L 277.376354 207.914093 
L 281.913773 211.857027 
L 286.451192 215.34482 
L 288.719902 216.859907 
L 290.988611 218.189991 
L 293.257321 219.310776 
L 295.526031 220.198779 
L 297.79474 220.832037 
L 300.06345 221.190828 
L 302.332159 221.258365 
L 304.600869 221.021417 
L 306.869578 220.47079 
L 309.138288 219.601633 
L 311.406998 218.413536 
L 313.675707 216.910415 
L 315.944417 215.100206 
L 318.213126 212.99441 
L 320.481836 210.607543 
L 322.750546 207.956547 
L 325.019255 205.060207 
L 327.287965 201.938602 
L 331.825384 195.103603 
L 336.362803 187.621689 
L 340.900222 179.66027 
L 347.706351 167.162107 
L 361.318609 141.815317 
L 368.124737 129.65952 
L 372.662156 121.905118 
L 377.199576 114.477199 
L 381.736995 107.406341 
L 386.274414 100.728879 
L 390.811833 94.502562 
L 395.349252 88.817521 
L 397.617962 86.215167 
L 399.886672 83.79586 
L 402.155381 81.577787 
L 404.424091 79.579178 
L 406.6928 77.817716 
L 408.96151 76.310009 
L 411.230219 75.071166 
L 413.498929 74.114457 
L 415.767639 73.451059 
L 418.036348 73.089875 
L 420.305058 73.037406 
L 422.573767 73.29766 
L 424.842477 73.872093 
L 427.111187 74.759566 
L 429.379896 75.956318 
L 431.648606 77.455941 
L 433.917315 79.249375 
L 436.186025 81.324896 
L 438.454734 83.66813 
L 440.723444 86.262066 
L 442.992154 89.087101 
L 447.529573 95.339549 
L 452.066992 102.220555 
L 458.873121 113.198055 
L 465.679249 124.199173 
L 470.216669 131.154909 
L 474.754088 137.605528 
L 479.291507 143.460185 
L 483.828926 148.702793 
L 488.366345 153.374983 
L 492.903765 157.551654 
L 497.441184 161.318418 
L 501.978603 164.75545 
L 506.516022 167.927842 
L 511.053441 170.880832 
L 515.59086 173.638234 
L 520.12828 176.202969 
L 524.665699 178.559116 
L 529.203118 180.675171 
L 533.740537 182.508282 
L 538.277956 184.009201 
L 542.815375 185.127435 
L 545.084085 185.528075 
L 547.352795 185.815795 
L 549.621504 185.985676 
L 551.890214 186.0332 
L 554.158923 185.954155 
L 556.427633 185.744479 
L 558.696342 185.400053 
L 560.965052 184.916462 
L 563.233762 184.288758 
L 565.502471 183.511271 
L 567.771181 182.577524 
L 570.03989 181.480297 
L 572.3086 180.211875 
L 574.57731 178.764502 
L 576.846019 177.130993 
L 579.114729 175.305434 
L 581.383438 173.283872 
L 583.652148 171.06488 
L 585.920858 168.649911 
L 588.189567 166.043409 
L 592.726986 160.287642 
L 597.264405 153.884531 
L 601.801825 146.948738 
L 606.339244 139.609917 
L 613.145373 128.140967 
L 624.48892 108.87747 
L 624.48892 108.87747 
" clip-path="url(#p0471d39de1)" style="fill: none; stroke-dasharray: 1.7,2.805; stroke-dashoffset: 0; stroke: #2ca02c; stroke-width: 1.7"/>
   </g>
   <g id="patch_3">
    <path d="M 55.15625 305.8 
L 55.15625 27.15 
" style="fill: none; stroke: #000000; stroke-width: 0.8; stroke-linejoin: miter; stroke-linecap: square"/>
   </g>
   <g id="patch_4">
    <path d="M 651.6 305.8 
L 651.6 27.15 
" style="fill: none; stroke: #000000; stroke-width: 0.8; stroke-linejoin: miter; stroke-linecap: square"/>
   </g>
   <g id="patch_5">
    <path d="M 55.15625 305.8 
L 651.6 305.8 
" style="fill: none; stroke: #000000; stroke-width: 0.8; stroke-linejoin: miter; stroke-linecap: square"/>
   </g>
   <g id="patch_6">
    <path d="M 55.15625 27.15 
L 651.6 27.15 
" style="fill: none; stroke: #000000; stroke-width: 0.8; stroke-linejoin: miter; stroke-linecap: square"/>
   </g>
   <g id="text_15">
    
    <g style="opacity: 0.75" transform="translate(82.26733 322.109471) scale(0.09 -0.09)">
     <defs>
      <path id="DejaVuSans-53" d="M 3425 4513 
L 3425 3897 
Q 3066 4069 2747 4153 
Q 2428 4238 2131 4238 
Q 1616 4238 1336 4038 
Q 1056 3838 1056 3469 
Q 1056 3159 1242 3001 
Q 1428 2844 1947 2747 
L 2328 2669 
Q 3034 2534 3370 2195 
Q 3706 1856 3706 1288 
Q 3706 609 3251 259 
Q 2797 -91 1919 -91 
Q 1588 -91 1214 -16 
Q 841 59 441 206 
L 441 856 
Q 825 641 1194 531 
Q 1563 422 1919 422 
Q 2459 422 2753 634 
Q 3047 847 3047 1241 
Q 3047 1584 2836 1778 
Q 2625 1972 2144 2069 
L 1759 2144 
Q 1053 2284 737 2584 
Q 422 2884 422 3419 
Q 422 4038 858 4394 
Q 1294 4750 2059 4750 
Q 2388 4750 2728 4690 
Q 3069 4631 3425 4513 
z
" transform="scale(0.015625)"/>
      <path id="DejaVuSans-79" d="M 2059 -325 
Q 1816 -950 1584 -1140 
Q 1353 -1331 966 -1331 
L 506 -1331 
L 506 -850 
L 844 -850 
Q 1081 -850 1212 -737 
Q 1344 -625 1503 -206 
L 1606 56 
L 191 3500 
L 800 3500 
L 1894 763 
L 2988 3500 
L 3597 3500 
L 2059 -325 
z
" transform="scale(0.015625)"/>
      <path id="DejaVuSans-68" d="M 3513 2113 
L 3513 0 
L 2938 0 
L 2938 2094 
Q 2938 2591 2744 2837 
Q 2550 3084 2163 3084 
Q 1697 3084 1428 2787 
Q 1159 2491 1159 1978 
L 1159 0 
L 581 0 
L 581 4863 
L 1159 4863 
L 1159 2956 
Q 1366 3272 1645 3428 
Q 1925 3584 2291 3584 
Q 2894 3584 3203 3211 
Q 3513 2838 3513 2113 
z
" transform="scale(0.015625)"/>
      <path id="DejaVuSans-2014" d="M 313 1978 
L 6088 1978 
L 6088 1528 
L 313 1528 
L 313 1978 
z
" transform="scale(0.015625)"/>
      <path id="DejaVuSans-73" d="M 2834 3397 
L 2834 2853 
Q 2591 2978 2328 3040 
Q 2066 3103 1784 3103 
Q 1356 3103 1142 2972 
Q 928 2841 928 2578 
Q 928 2378 1081 2264 
Q 1234 2150 1697 2047 
L 1894 2003 
Q 2506 1872 2764 1633 
Q 3022 1394 3022 966 
Q 3022 478 2636 193 
Q 2250 -91 1575 -91 
Q 1294 -91 989 -36 
Q 684 19 347 128 
L 347 722 
Q 666 556 975 473 
Q 1284 391 1588 391 
Q 1994 391 2212 530 
Q 2431 669 2431 922 
Q 2431 1156 2273 1281 
Q 2116 1406 1581 1522 
L 1381 1569 
Q 847 1681 609 1914 
Q 372 2147 372 2553 
Q 372 3047 722 3315 
Q 1072 3584 1716 3584 
Q 2034 3584 2315 3537 
Q 2597 3491 2834 3397 
z
" transform="scale(0.015625)"/>
      <path id="DejaVuSans-2c" d="M 750 794 
L 1409 794 
L 1409 256 
L 897 -744 
L 494 -744 
L 750 256 
L 750 794 
z
" transform="scale(0.015625)"/>
      <path id="DejaVuSans-78" d="M 3513 3500 
L 2247 1797 
L 3578 0 
L 2900 0 
L 1881 1375 
L 863 0 
L 184 0 
L 1544 1831 
L 300 3500 
L 978 3500 
L 1906 2253 
L 2834 3500 
L 3513 3500 
z
" transform="scale(0.015625)"/>
     </defs>
     <use xlink:href="#DejaVuSans-53"/>
     <use xlink:href="#DejaVuSans-79" transform="translate(63.476562 0)"/>
     <use xlink:href="#DejaVuSans-6e" transform="translate(122.65625 0)"/>
     <use xlink:href="#DejaVuSans-74" transform="translate(186.035156 0)"/>
     <use xlink:href="#DejaVuSans-68" transform="translate(225.244141 0)"/>
     <use xlink:href="#DejaVuSans-65" transform="translate(288.623047 0)"/>
     <use xlink:href="#DejaVuSans-74" transform="translate(350.146484 0)"/>
     <use xlink:href="#DejaVuSans-69" transform="translate(389.355469 0)"/>
     <use xlink:href="#DejaVuSans-63" transform="translate(417.138672 0)"/>
     <use xlink:href="#DejaVuSans-20" transform="translate(472.119141 0)"/>
     <use xlink:href="#DejaVuSans-74" transform="translate(503.90625 0)"/>
     <use xlink:href="#DejaVuSans-6f" transform="translate(543.115234 0)"/>
     <use xlink:href="#DejaVuSans-79" transform="translate(604.296875 0)"/>
     <use xlink:href="#DejaVuSans-20" transform="translate(663.476562 0)"/>
     <use xlink:href="#DejaVuSans-64" transform="translate(695.263672 0)"/>
     <use xlink:href="#DejaVuSans-61" transform="translate(758.740234 0)"/>
     <use xlink:href="#DejaVuSans-74" transform="translate(820.019531 0)"/>
     <use xlink:href="#DejaVuSans-61" transform="translate(859.228516 0)"/>
     <use xlink:href="#DejaVuSans-20" transform="translate(920.507812 0)"/>
     <use xlink:href="#DejaVuSans-2014" transform="translate(952.294922 0)"/>
     <use xlink:href="#DejaVuSans-20" transform="translate(1052.294922 0)"/>
     <use xlink:href="#DejaVuSans-6e" transform="translate(1084.082031 0)"/>
     <use xlink:href="#DejaVuSans-6f" transform="translate(1147.460938 0)"/>
     <use xlink:href="#DejaVuSans-74" transform="translate(1208.642578 0)"/>
     <use xlink:href="#DejaVuSans-20" transform="translate(1247.851562 0)"/>
     <use xlink:href="#DejaVuSans-63" transform="translate(1279.638672 0)"/>
     <use xlink:href="#DejaVuSans-6f" transform="translate(1334.619141 0)"/>
     <use xlink:href="#DejaVuSans-6d" transform="translate(1395.800781 0)"/>
     <use xlink:href="#DejaVuSans-70" transform="translate(1493.212891 0)"/>
     <use xlink:href="#DejaVuSans-61" transform="translate(1556.689453 0)"/>
     <use xlink:href="#DejaVuSans-6e" transform="translate(1617.96875 0)"/>
     <use xlink:href="#DejaVuSans-79" transform="translate(1681.347656 0)"/>
     <use xlink:href="#DejaVuSans-20" transform="translate(1740.527344 0)"/>
     <use xlink:href="#DejaVuSans-6d" transform="translate(1772.314453 0)"/>
     <use xlink:href="#DejaVuSans-65" transform="translate(1869.726562 0)"/>
     <use xlink:href="#DejaVuSans-74" transform="translate(1931.25 0)"/>
     <use xlink:href="#DejaVuSans-72" transform="translate(1970.458984 0)"/>
     <use xlink:href="#DejaVuSans-69" transform="translate(2011.572266 0)"/>
     <use xlink:href="#DejaVuSans-63" transform="translate(2039.355469 0)"/>
     <use xlink:href="#DejaVuSans-73" transform="translate(2094.335938 0)"/>
     <use xlink:href="#DejaVuSans-2c" transform="translate(2146.435547 0)"/>
     <use xlink:href="#DejaVuSans-20" transform="translate(2178.222656 0)"/>
     <use xlink:href="#DejaVuSans-64" transform="translate(2210.009766 0)"/>
     <use xlink:href="#DejaVuSans-61" transform="translate(2273.486328 0)"/>
     <use xlink:href="#DejaVuSans-73" transform="translate(2334.765625 0)"/>
     <use xlink:href="#DejaVuSans-68" transform="translate(2386.865234 0)"/>
     <use xlink:href="#DejaVuSans-62" transform="translate(2450.244141 0)"/>
     <use xlink:href="#DejaVuSans-6f" transform="translate(2513.720703 0)"/>
     <use xlink:href="#DejaVuSans-61" transform="translate(2574.902344 0)"/>
     <use xlink:href="#DejaVuSans-72" transform="translate(2636.181641 0)"/>
     <use xlink:href="#DejaVuSans-64" transform="translate(2675.544922 0)"/>
     <use xlink:href="#DejaVuSans-73" transform="translate(2739.021484 0)"/>
     <use xlink:href="#DejaVuSans-2c" transform="translate(2791.121094 0)"/>
     <use xlink:href="#DejaVuSans-20" transform="translate(2822.908203 0)"/>
     <use xlink:href="#DejaVuSans-6f" transform="translate(2854.695312 0)"/>
     <use xlink:href="#DejaVuSans-72" transform="translate(2915.876953 0)"/>
     <use xlink:href="#DejaVuSans-20" transform="translate(2956.990234 0)"/>
     <use xlink:href="#DejaVuSans-70" transform="translate(2988.777344 0)"/>
     <use xlink:href="#DejaVuSans-72" transform="translate(3052.253906 0)"/>
     <use xlink:href="#DejaVuSans-6f" transform="translate(3091.117188 0)"/>
     <use xlink:href="#DejaVuSans-64" transform="translate(3152.298828 0)"/>
     <use xlink:href="#DejaVuSans-75" transform="translate(3215.775391 0)"/>
     <use xlink:href="#DejaVuSans-63" transform="translate(3279.154297 0)"/>
     <use xlink:href="#DejaVuSans-74" transform="translate(3334.134766 0)"/>
     <use xlink:href="#DejaVuSans-69" transform="translate(3373.34375 0)"/>
     <use xlink:href="#DejaVuSans-6f" transform="translate(3401.126953 0)"/>
     <use xlink:href="#DejaVuSans-6e" transform="translate(3462.308594 0)"/>
     <use xlink:href="#DejaVuSans-20" transform="translate(3525.6875 0)"/>
     <use xlink:href="#DejaVuSans-65" transform="translate(3557.474609 0)"/>
     <use xlink:href="#DejaVuSans-78" transform="translate(3617.248047 0)"/>
     <use xlink:href="#DejaVuSans-70" transform="translate(3676.427734 0)"/>
     <use xlink:href="#DejaVuSans-65" transform="translate(3739.904297 0)"/>
     <use xlink:href="#DejaVuSans-72" transform="translate(3801.427734 0)"/>
     <use xlink:href="#DejaVuSans-69" transform="translate(3842.541016 0)"/>
     <use xlink:href="#DejaVuSans-6d" transform="translate(3870.324219 0)"/>
     <use xlink:href="#DejaVuSans-65" transform="translate(3967.736328 0)"/>
     <use xlink:href="#DejaVuSans-6e" transform="translate(4029.259766 0)"/>
     <use xlink:href="#DejaVuSans-74" transform="translate(4092.638672 0)"/>
     <use xlink:href="#DejaVuSans-20" transform="translate(4131.847656 0)"/>
     <use xlink:href="#DejaVuSans-72" transform="translate(4163.634766 0)"/>
     <use xlink:href="#DejaVuSans-65" transform="translate(4202.498047 0)"/>
     <use xlink:href="#DejaVuSans-73" transform="translate(4264.021484 0)"/>
     <use xlink:href="#DejaVuSans-75" transform="translate(4316.121094 0)"/>
     <use xlink:href="#DejaVuSans-6c" transform="translate(4379.5 0)"/>
     <use xlink:href="#DejaVuSans-74" transform="translate(4407.283203 0)"/>
     <use xlink:href="#DejaVuSans-73" transform="translate(4446.492188 0)"/>
     <use xlink:href="#DejaVuSans-2e" transform="translate(4498.591797 0)"/>
    </g>
   </g>
   <g id="text_16">
    
    <g transform="translate(164.489688 21.15) scale(0.14 -0.14)">
     <defs>
      <path id="DejaVuSans-Bold-53" d="M 3834 4519 
L 3834 3531 
Q 3450 3703 3084 3790 
Q 2719 3878 2394 3878 
Q 1963 3878 1756 3759 
Q 1550 3641 1550 3391 
Q 1550 3203 1689 3098 
Q 1828 2994 2194 2919 
L 2706 2816 
Q 3484 2659 3812 2340 
Q 4141 2022 4141 1434 
Q 4141 663 3683 286 
Q 3225 -91 2284 -91 
Q 1841 -91 1394 -6 
Q 947 78 500 244 
L 500 1259 
Q 947 1022 1364 901 
Q 1781 781 2169 781 
Q 2563 781 2772 912 
Q 2981 1044 2981 1288 
Q 2981 1506 2839 1625 
Q 2697 1744 2272 1838 
L 1806 1941 
Q 1106 2091 782 2419 
Q 459 2747 459 3303 
Q 459 4000 909 4375 
Q 1359 4750 2203 4750 
Q 2588 4750 2994 4692 
Q 3400 4634 3834 4519 
z
" transform="scale(0.015625)"/>
      <path id="DejaVuSans-Bold-79" d="M 78 3500 
L 1197 3500 
L 2138 1125 
L 2938 3500 
L 4056 3500 
L 2584 -331 
Q 2363 -916 2067 -1148 
Q 1772 -1381 1288 -1381 
L 641 -1381 
L 641 -647 
L 991 -647 
Q 1275 -647 1404 -556 
Q 1534 -466 1606 -231 
L 1638 -134 
L 78 3500 
z
" transform="scale(0.015625)"/>
      <path id="DejaVuSans-Bold-6e" d="M 4056 2131 
L 4056 0 
L 2931 0 
L 2931 347 
L 2931 1631 
Q 2931 2084 2911 2256 
Q 2891 2428 2841 2509 
Q 2775 2619 2662 2680 
Q 2550 2741 2406 2741 
Q 2056 2741 1856 2470 
Q 1656 2200 1656 1722 
L 1656 0 
L 538 0 
L 538 3500 
L 1656 3500 
L 1656 2988 
Q 1909 3294 2193 3439 
Q 2478 3584 2822 3584 
Q 3428 3584 3742 3212 
Q 4056 2841 4056 2131 
z
" transform="scale(0.015625)"/>
      <path id="DejaVuSans-Bold-74" d="M 1759 4494 
L 1759 3500 
L 2913 3500 
L 2913 2700 
L 1759 2700 
L 1759 1216 
Q 1759 972 1856 886 
Q 1953 800 2241 800 
L 2816 800 
L 2816 0 
L 1856 0 
Q 1194 0 917 276 
Q 641 553 641 1216 
L 641 2700 
L 84 2700 
L 84 3500 
L 641 3500 
L 641 4494 
L 1759 4494 
z
" transform="scale(0.015625)"/>
      <path id="DejaVuSans-Bold-68" d="M 4056 2131 
L 4056 0 
L 2931 0 
L 2931 347 
L 2931 1625 
Q 2931 2084 2911 2256 
Q 2891 2428 2841 2509 
Q 2775 2619 2662 2680 
Q 2550 2741 2406 2741 
Q 2056 2741 1856 2470 
Q 1656 2200 1656 1722 
L 1656 0 
L 538 0 
L 538 4863 
L 1656 4863 
L 1656 2988 
Q 1909 3294 2193 3439 
Q 2478 3584 2822 3584 
Q 3428 3584 3742 3212 
Q 4056 2841 4056 2131 
z
" transform="scale(0.015625)"/>
      <path id="DejaVuSans-Bold-65" d="M 4031 1759 
L 4031 1441 
L 1416 1441 
Q 1456 1047 1700 850 
Q 1944 653 2381 653 
Q 2734 653 3104 758 
Q 3475 863 3866 1075 
L 3866 213 
Q 3469 63 3072 -14 
Q 2675 -91 2278 -91 
Q 1328 -91 801 392 
Q 275 875 275 1747 
Q 275 2603 792 3093 
Q 1309 3584 2216 3584 
Q 3041 3584 3536 3087 
Q 4031 2591 4031 1759 
z
M 2881 2131 
Q 2881 2450 2695 2645 
Q 2509 2841 2209 2841 
Q 1884 2841 1681 2658 
Q 1478 2475 1428 2131 
L 2881 2131 
z
" transform="scale(0.015625)"/>
      <path id="DejaVuSans-Bold-69" d="M 538 3500 
L 1656 3500 
L 1656 0 
L 538 0 
L 538 3500 
z
M 538 4863 
L 1656 4863 
L 1656 3950 
L 538 3950 
L 538 4863 
z
" transform="scale(0.015625)"/>
      <path id="DejaVuSans-Bold-63" d="M 3366 3391 
L 3366 2478 
Q 3138 2634 2908 2709 
Q 2678 2784 2431 2784 
Q 1963 2784 1702 2511 
Q 1441 2238 1441 1747 
Q 1441 1256 1702 982 
Q 1963 709 2431 709 
Q 2694 709 2930 787 
Q 3166 866 3366 1019 
L 3366 103 
Q 3103 6 2833 -42 
Q 2563 -91 2291 -91 
Q 1344 -91 809 395 
Q 275 881 275 1747 
Q 275 2613 809 3098 
Q 1344 3584 2291 3584 
Q 2566 3584 2833 3536 
Q 3100 3488 3366 3391 
z
" transform="scale(0.015625)"/>
      <path id="DejaVuSans-Bold-20" transform="scale(0.015625)"/>
      <path id="DejaVuSans-Bold-47" d="M 4781 347 
Q 4331 128 3847 18 
Q 3363 -91 2847 -91 
Q 1681 -91 1000 561 
Q 319 1213 319 2328 
Q 319 3456 1012 4103 
Q 1706 4750 2913 4750 
Q 3378 4750 3804 4662 
Q 4231 4575 4609 4403 
L 4609 3438 
Q 4219 3659 3833 3768 
Q 3447 3878 3059 3878 
Q 2341 3878 1952 3476 
Q 1563 3075 1563 2328 
Q 1563 1588 1938 1184 
Q 2313 781 3003 781 
Q 3191 781 3352 804 
Q 3513 828 3641 878 
L 3641 1784 
L 2906 1784 
L 2906 2591 
L 4781 2591 
L 4781 347 
z
" transform="scale(0.015625)"/>
      <path id="DejaVuSans-Bold-61" d="M 2106 1575 
Q 1756 1575 1579 1456 
Q 1403 1338 1403 1106 
Q 1403 894 1545 773 
Q 1688 653 1941 653 
Q 2256 653 2472 879 
Q 2688 1106 2688 1447 
L 2688 1575 
L 2106 1575 
z
M 3816 1997 
L 3816 0 
L 2688 0 
L 2688 519 
Q 2463 200 2181 54 
Q 1900 -91 1497 -91 
Q 953 -91 614 226 
Q 275 544 275 1050 
Q 275 1666 698 1953 
Q 1122 2241 2028 2241 
L 2688 2241 
L 2688 2328 
Q 2688 2594 2478 2717 
Q 2269 2841 1825 2841 
Q 1466 2841 1156 2769 
Q 847 2697 581 2553 
L 581 3406 
Q 941 3494 1303 3539 
Q 1666 3584 2028 3584 
Q 2975 3584 3395 3211 
Q 3816 2838 3816 1997 
z
" transform="scale(0.015625)"/>
      <path id="DejaVuSans-Bold-75" d="M 500 1363 
L 500 3500 
L 1625 3500 
L 1625 3150 
Q 1625 2866 1622 2436 
Q 1619 2006 1619 1863 
Q 1619 1441 1641 1255 
Q 1663 1069 1716 984 
Q 1784 875 1895 815 
Q 2006 756 2150 756 
Q 2500 756 2700 1025 
Q 2900 1294 2900 1772 
L 2900 3500 
L 4019 3500 
L 4019 0 
L 2900 0 
L 2900 506 
Q 2647 200 2364 54 
Q 2081 -91 1741 -91 
Q 1134 -91 817 281 
Q 500 653 500 1363 
z
" transform="scale(0.015625)"/>
      <path id="DejaVuSans-Bold-73" d="M 3272 3391 
L 3272 2541 
Q 2913 2691 2578 2766 
Q 2244 2841 1947 2841 
Q 1628 2841 1473 2761 
Q 1319 2681 1319 2516 
Q 1319 2381 1436 2309 
Q 1553 2238 1856 2203 
L 2053 2175 
Q 2913 2066 3209 1816 
Q 3506 1566 3506 1031 
Q 3506 472 3093 190 
Q 2681 -91 1863 -91 
Q 1516 -91 1145 -36 
Q 775 19 384 128 
L 384 978 
Q 719 816 1070 734 
Q 1422 653 1784 653 
Q 2113 653 2278 743 
Q 2444 834 2444 1013 
Q 2444 1163 2330 1236 
Q 2216 1309 1875 1350 
L 1678 1375 
Q 931 1469 631 1722 
Q 331 1975 331 2491 
Q 331 3047 712 3315 
Q 1094 3584 1881 3584 
Q 2191 3584 2531 3537 
Q 2872 3491 3272 3391 
z
" transform="scale(0.015625)"/>
      <path id="DejaVuSans-Bold-50" d="M 588 4666 
L 2584 4666 
Q 3475 4666 3951 4270 
Q 4428 3875 4428 3144 
Q 4428 2409 3951 2014 
Q 3475 1619 2584 1619 
L 1791 1619 
L 1791 0 
L 588 0 
L 588 4666 
z
M 1791 3794 
L 1791 2491 
L 2456 2491 
Q 2806 2491 2997 2661 
Q 3188 2831 3188 3144 
Q 3188 3456 2997 3625 
Q 2806 3794 2456 3794 
L 1791 3794 
z
" transform="scale(0.015625)"/>
      <path id="DejaVuSans-Bold-72" d="M 3138 2547 
Q 2991 2616 2845 2648 
Q 2700 2681 2553 2681 
Q 2122 2681 1889 2404 
Q 1656 2128 1656 1613 
L 1656 0 
L 538 0 
L 538 3500 
L 1656 3500 
L 1656 2925 
Q 1872 3269 2151 3426 
Q 2431 3584 2822 3584 
Q 2878 3584 2943 3579 
Q 3009 3575 3134 3559 
L 3138 2547 
z
" transform="scale(0.015625)"/>
      <path id="DejaVuSans-Bold-6f" d="M 2203 2784 
Q 1831 2784 1636 2517 
Q 1441 2250 1441 1747 
Q 1441 1244 1636 976 
Q 1831 709 2203 709 
Q 2569 709 2762 976 
Q 2956 1244 2956 1747 
Q 2956 2250 2762 2517 
Q 2569 2784 2203 2784 
z
M 2203 3584 
Q 3106 3584 3614 3096 
Q 4122 2609 4122 1747 
Q 4122 884 3614 396 
Q 3106 -91 2203 -91 
Q 1297 -91 786 396 
Q 275 884 275 1747 
Q 275 2609 786 3096 
Q 1297 3584 2203 3584 
z
" transform="scale(0.015625)"/>
      <path id="DejaVuSans-Bold-62" d="M 2400 722 
Q 2759 722 2948 984 
Q 3138 1247 3138 1747 
Q 3138 2247 2948 2509 
Q 2759 2772 2400 2772 
Q 2041 2772 1848 2508 
Q 1656 2244 1656 1747 
Q 1656 1250 1848 986 
Q 2041 722 2400 722 
z
M 1656 2988 
Q 1888 3294 2169 3439 
Q 2450 3584 2816 3584 
Q 3463 3584 3878 3070 
Q 4294 2556 4294 1747 
Q 4294 938 3878 423 
Q 3463 -91 2816 -91 
Q 2450 -91 2169 54 
Q 1888 200 1656 506 
L 1656 0 
L 538 0 
L 538 4863 
L 1656 4863 
L 1656 2988 
z
" transform="scale(0.015625)"/>
      <path id="DejaVuSans-Bold-64" d="M 2919 2988 
L 2919 4863 
L 4044 4863 
L 4044 0 
L 2919 0 
L 2919 506 
Q 2688 197 2409 53 
Q 2131 -91 1766 -91 
Q 1119 -91 703 423 
Q 288 938 288 1747 
Q 288 2556 703 3070 
Q 1119 3584 1766 3584 
Q 2128 3584 2408 3439 
Q 2688 3294 2919 2988 
z
M 2181 722 
Q 2541 722 2730 984 
Q 2919 1247 2919 1747 
Q 2919 2247 2730 2509 
Q 2541 2772 2181 2772 
Q 1825 2772 1636 2509 
Q 1447 2247 1447 1747 
Q 1447 1247 1636 984 
Q 1825 722 2181 722 
z
" transform="scale(0.015625)"/>
      <path id="DejaVuSans-Bold-70" d="M 1656 506 
L 1656 -1331 
L 538 -1331 
L 538 3500 
L 1656 3500 
L 1656 2988 
Q 1888 3294 2169 3439 
Q 2450 3584 2816 3584 
Q 3463 3584 3878 3070 
Q 4294 2556 4294 1747 
Q 4294 938 3878 423 
Q 3463 -91 2816 -91 
Q 2450 -91 2169 54 
Q 1888 200 1656 506 
z
M 2400 2772 
Q 2041 2772 1848 2508 
Q 1656 2244 1656 1747 
Q 1656 1250 1848 986 
Q 2041 722 2400 722 
Q 2759 722 2948 984 
Q 3138 1247 3138 1747 
Q 3138 2247 2948 2509 
Q 2759 2772 2400 2772 
z
" transform="scale(0.015625)"/>
      <path id="DejaVuSans-Bold-6d" d="M 3781 2919 
Q 3994 3244 4286 3414 
Q 4578 3584 4928 3584 
Q 5531 3584 5847 3212 
Q 6163 2841 6163 2131 
L 6163 0 
L 5038 0 
L 5038 1825 
Q 5041 1866 5042 1909 
Q 5044 1953 5044 2034 
Q 5044 2406 4934 2573 
Q 4825 2741 4581 2741 
Q 4263 2741 4089 2478 
Q 3916 2216 3909 1719 
L 3909 0 
L 2784 0 
L 2784 1825 
Q 2784 2406 2684 2573 
Q 2584 2741 2328 2741 
Q 2006 2741 1831 2477 
Q 1656 2213 1656 1722 
L 1656 0 
L 531 0 
L 531 3500 
L 1656 3500 
L 1656 2988 
Q 1863 3284 2130 3434 
Q 2397 3584 2719 3584 
Q 3081 3584 3359 3409 
Q 3638 3234 3781 2919 
z
" transform="scale(0.015625)"/>
      <path id="DejaVuSans-Bold-7a" d="M 366 3500 
L 3419 3500 
L 3419 2719 
L 1575 800 
L 3419 800 
L 3419 0 
L 288 0 
L 288 781 
L 2131 2700 
L 366 2700 
L 366 3500 
z
" transform="scale(0.015625)"/>
     </defs>
     <use xlink:href="#DejaVuSans-Bold-53"/>
     <use xlink:href="#DejaVuSans-Bold-79" transform="translate(72.021484 0)"/>
     <use xlink:href="#DejaVuSans-Bold-6e" transform="translate(137.207031 0)"/>
     <use xlink:href="#DejaVuSans-Bold-74" transform="translate(208.398438 0)"/>
     <use xlink:href="#DejaVuSans-Bold-68" transform="translate(256.201172 0)"/>
     <use xlink:href="#DejaVuSans-Bold-65" transform="translate(327.392578 0)"/>
     <use xlink:href="#DejaVuSans-Bold-74" transform="translate(395.214844 0)"/>
     <use xlink:href="#DejaVuSans-Bold-69" transform="translate(443.017578 0)"/>
     <use xlink:href="#DejaVuSans-Bold-63" transform="translate(477.294922 0)"/>
     <use xlink:href="#DejaVuSans-Bold-20" transform="translate(536.572266 0)"/>
     <use xlink:href="#DejaVuSans-Bold-47" transform="translate(571.386719 0)"/>
     <use xlink:href="#DejaVuSans-Bold-61" transform="translate(653.466797 0)"/>
     <use xlink:href="#DejaVuSans-Bold-75" transform="translate(720.947266 0)"/>
     <use xlink:href="#DejaVuSans-Bold-73" transform="translate(792.138672 0)"/>
     <use xlink:href="#DejaVuSans-Bold-73" transform="translate(851.660156 0)"/>
     <use xlink:href="#DejaVuSans-Bold-69" transform="translate(911.181641 0)"/>
     <use xlink:href="#DejaVuSans-Bold-61" transform="translate(945.458984 0)"/>
     <use xlink:href="#DejaVuSans-Bold-6e" transform="translate(1012.939453 0)"/>
     <use xlink:href="#DejaVuSans-Bold-20" transform="translate(1084.130859 0)"/>
     <use xlink:href="#DejaVuSans-Bold-50" transform="translate(1118.945312 0)"/>
     <use xlink:href="#DejaVuSans-Bold-72" transform="translate(1192.236328 0)"/>
     <use xlink:href="#DejaVuSans-Bold-6f" transform="translate(1241.552734 0)"/>
     <use xlink:href="#DejaVuSans-Bold-63" transform="translate(1310.253906 0)"/>
     <use xlink:href="#DejaVuSans-Bold-65" transform="translate(1369.53125 0)"/>
     <use xlink:href="#DejaVuSans-Bold-73" transform="translate(1437.353516 0)"/>
     <use xlink:href="#DejaVuSans-Bold-73" transform="translate(1496.875 0)"/>
     <use xlink:href="#DejaVuSans-Bold-20" transform="translate(1556.396484 0)"/>
     <use xlink:href="#DejaVuSans-Bold-62" transform="translate(1591.210938 0)"/>
     <use xlink:href="#DejaVuSans-Bold-61" transform="translate(1662.792969 0)"/>
     <use xlink:href="#DejaVuSans-Bold-6e" transform="translate(1730.273438 0)"/>
     <use xlink:href="#DejaVuSans-Bold-64" transform="translate(1801.464844 0)"/>
     <use xlink:href="#DejaVuSans-Bold-69" transform="translate(1873.046875 0)"/>
     <use xlink:href="#DejaVuSans-Bold-74" transform="translate(1907.324219 0)"/>
     <use xlink:href="#DejaVuSans-Bold-20" transform="translate(1955.126953 0)"/>
     <use xlink:href="#DejaVuSans-Bold-6f" transform="translate(1989.941406 0)"/>
     <use xlink:href="#DejaVuSans-Bold-70" transform="translate(2058.642578 0)"/>
     <use xlink:href="#DejaVuSans-Bold-74" transform="translate(2130.224609 0)"/>
     <use xlink:href="#DejaVuSans-Bold-69" transform="translate(2178.027344 0)"/>
     <use xlink:href="#DejaVuSans-Bold-6d" transform="translate(2212.304688 0)"/>
     <use xlink:href="#DejaVuSans-Bold-69" transform="translate(2316.503906 0)"/>
     <use xlink:href="#DejaVuSans-Bold-7a" transform="translate(2350.78125 0)"/>
     <use xlink:href="#DejaVuSans-Bold-61" transform="translate(2408.984375 0)"/>
     <use xlink:href="#DejaVuSans-Bold-74" transform="translate(2476.464844 0)"/>
     <use xlink:href="#DejaVuSans-Bold-69" transform="translate(2524.267578 0)"/>
     <use xlink:href="#DejaVuSans-Bold-6f" transform="translate(2558.544922 0)"/>
     <use xlink:href="#DejaVuSans-Bold-6e" transform="translate(2627.246094 0)"/>
    </g>
   </g>
   <g id="PathCollection_1">
    <defs>
     <path id="m5f8b6b0956" d="M 0 3.391165 
C 0.899347 3.391165 1.761981 3.03385 2.397916 2.397916 
C 3.03385 1.761981 3.391165 0.899347 3.391165 0 
C 3.391165 -0.899347 3.03385 -1.761981 2.397916 -2.397916 
C 1.761981 -3.03385 0.899347 -3.391165 0 -3.391165 
C -0.899347 -3.391165 -1.761981 -3.03385 -2.397916 -2.397916 
C -3.03385 -1.761981 -3.391165 -0.899347 -3.391165 0 
C -3.391165 0.899347 -3.03385 1.761981 -2.397916 2.397916 
C -1.761981 3.03385 -0.899347 3.391165 0 3.391165 
z
" style="stroke: #ff7f0e"/>
    </defs>
    <g clip-path="url(#p0471d39de1)">
     <use xlink:href="#m5f8b6b0956" x="125.645057" y="139.958661" style="fill: #ff7f0e; stroke: #ff7f0e"/>
     <use xlink:href="#m5f8b6b0956" x="169.022784" y="165.732229" style="fill: #ff7f0e; stroke: #ff7f0e"/>
     <use xlink:href="#m5f8b6b0956" x="239.511591" y="198.827208" style="fill: #ff7f0e; stroke: #ff7f0e"/>
     <use xlink:href="#m5f8b6b0956" x="304.578182" y="259.981715" style="fill: #ff7f0e; stroke: #ff7f0e"/>
     <use xlink:href="#m5f8b6b0956" x="369.644773" y="157.333712" style="fill: #ff7f0e; stroke: #ff7f0e"/>
     <use xlink:href="#m5f8b6b0956" x="407.600284" y="98.096675" style="fill: #ff7f0e; stroke: #ff7f0e"/>
     <use xlink:href="#m5f8b6b0956" x="472.666875" y="168.913378" style="fill: #ff7f0e; stroke: #ff7f0e"/>
     <use xlink:href="#m5f8b6b0956" x="548.577898" y="219.255347" style="fill: #ff7f0e; stroke: #ff7f0e"/>
     <use xlink:href="#m5f8b6b0956" x="586.533409" y="197.772213" style="fill: #ff7f0e; stroke: #ff7f0e"/>
    </g>
   </g>
   <g id="legend_1">
    <g id="patch_7">
     <path d="M 531.38375 104.005 
L 646 104.005 
Q 647.6 104.005 647.6 102.405 
L 647.6 32.75 
Q 647.6 31.15 646 31.15 
L 531.38375 31.15 
Q 529.78375 31.15 529.78375 32.75 
L 529.78375 102.405 
Q 529.78375 104.005 531.38375 104.005 
z
" style="fill: #ffffff; opacity: 0.92; stroke: #cccccc; stroke-linejoin: miter"/>
    </g>
    <g id="patch_8">
     <path d="M 532.98375 40.42875 
L 548.98375 40.42875 
L 548.98375 34.82875 
L 532.98375 34.82875 
z
" style="fill: #1f77b4; fill-opacity: 0.22"/>
    </g>
    <g id="text_17">
     <!-- Posterior uncertainty -->
     <g transform="translate(555.38375 40.42875) scale(0.08 -0.08)">
      <defs>
       <path id="DejaVuSans-50" d="M 1259 4147 
L 1259 2394 
L 2053 2394 
Q 2494 2394 2734 2622 
Q 2975 2850 2975 3272 
Q 2975 3691 2734 3919 
Q 2494 4147 2053 4147 
L 1259 4147 
z
M 628 4666 
L 2053 4666 
Q 2838 4666 3239 4311 
Q 3641 3956 3641 3272 
Q 3641 2581 3239 2228 
Q 2838 1875 2053 1875 
L 1259 1875 
L 1259 0 
L 628 0 
L 628 4666 
z
" transform="scale(0.015625)"/>
      </defs>
      <use xlink:href="#DejaVuSans-50"/>
      <use xlink:href="#DejaVuSans-6f" transform="translate(56.677734 0)"/>
      <use xlink:href="#DejaVuSans-73" transform="translate(117.859375 0)"/>
      <use xlink:href="#DejaVuSans-74" transform="translate(169.958984 0)"/>
      <use xlink:href="#DejaVuSans-65" transform="translate(209.167969 0)"/>
      <use xlink:href="#DejaVuSans-72" transform="translate(270.691406 0)"/>
      <use xlink:href="#DejaVuSans-69" transform="translate(311.804688 0)"/>
      <use xlink:href="#DejaVuSans-6f" transform="translate(339.587891 0)"/>
      <use xlink:href="#DejaVuSans-72" transform="translate(400.769531 0)"/>
      <use xlink:href="#DejaVuSans-20" transform="translate(441.882812 0)"/>
      <use xlink:href="#DejaVuSans-75" transform="translate(473.669922 0)"/>
      <use xlink:href="#DejaVuSans-6e" transform="translate(537.048828 0)"/>
      <use xlink:href="#DejaVuSans-63" transform="translate(600.427734 0)"/>
      <use xlink:href="#DejaVuSans-65" transform="translate(655.408203 0)"/>
      <use xlink:href="#DejaVuSans-72" transform="translate(716.931641 0)"/>
      <use xlink:href="#DejaVuSans-74" transform="translate(758.044922 0)"/>
      <use xlink:href="#DejaVuSans-61" transform="translate(797.253906 0)"/>
      <use xlink:href="#DejaVuSans-69" transform="translate(858.533203 0)"/>
      <use xlink:href="#DejaVuSans-6e" transform="translate(886.316406 0)"/>
      <use xlink:href="#DejaVuSans-74" transform="translate(949.695312 0)"/>
      <use xlink:href="#DejaVuSans-79" transform="translate(988.904297 0)"/>
     </g>
    </g>
    <g id="line2d_28">
     <path d="M 532.98375 49.37125 
L 540.98375 49.37125 
L 548.98375 49.37125 
" style="fill: none; stroke-dasharray: 6.66,2.88; stroke-dashoffset: 0; stroke: #1f77b4; stroke-width: 1.8"/>
    </g>
    <g id="text_18">
     <!-- Hidden objective (toy) -->
     <g transform="translate(555.38375 52.17125) scale(0.08 -0.08)">
      <defs>
       <path id="DejaVuSans-48" d="M 628 4666 
L 1259 4666 
L 1259 2753 
L 3553 2753 
L 3553 4666 
L 4184 4666 
L 4184 0 
L 3553 0 
L 3553 2222 
L 1259 2222 
L 1259 0 
L 628 0 
L 628 4666 
z
" transform="scale(0.015625)"/>
      </defs>
      <use xlink:href="#DejaVuSans-48"/>
      <use xlink:href="#DejaVuSans-69" transform="translate(75.195312 0)"/>
      <use xlink:href="#DejaVuSans-64" transform="translate(102.978516 0)"/>
      <use xlink:href="#DejaVuSans-64" transform="translate(166.455078 0)"/>
      <use xlink:href="#DejaVuSans-65" transform="translate(229.931641 0)"/>
      <use xlink:href="#DejaVuSans-6e" transform="translate(291.455078 0)"/>
      <use xlink:href="#DejaVuSans-20" transform="translate(354.833984 0)"/>
      <use xlink:href="#DejaVuSans-6f" transform="translate(386.621094 0)"/>
      <use xlink:href="#DejaVuSans-62" transform="translate(447.802734 0)"/>
      <use xlink:href="#DejaVuSans-6a" transform="translate(511.279297 0)"/>
      <use xlink:href="#DejaVuSans-65" transform="translate(539.0625 0)"/>
      <use xlink:href="#DejaVuSans-63" transform="translate(600.585938 0)"/>
      <use xlink:href="#DejaVuSans-74" transform="translate(655.566406 0)"/>
      <use xlink:href="#DejaVuSans-69" transform="translate(694.775391 0)"/>
      <use xlink:href="#DejaVuSans-76" transform="translate(722.558594 0)"/>
      <use xlink:href="#DejaVuSans-65" transform="translate(781.738281 0)"/>
      <use xlink:href="#DejaVuSans-20" transform="translate(843.261719 0)"/>
      <use xlink:href="#DejaVuSans-28" transform="translate(875.048828 0)"/>
      <use xlink:href="#DejaVuSans-74" transform="translate(914.0625 0)"/>
      <use xlink:href="#DejaVuSans-6f" transform="translate(953.271484 0)"/>
      <use xlink:href="#DejaVuSans-79" transform="translate(1014.453125 0)"/>
      <use xlink:href="#DejaVuSans-29" transform="translate(1073.632812 0)"/>
     </g>
    </g>
    <g id="line2d_29">
     <path d="M 532.98375 61.11375 
L 540.98375 61.11375 
L 548.98375 61.11375 
" style="fill: none; stroke: #ff7f0e; stroke-width: 2.4; stroke-linecap: square"/>
    </g>
    <g id="text_19">
     <!-- GP posterior mean -->
     <g transform="translate(555.38375 63.91375) scale(0.08 -0.08)">
      <defs>
       <path id="DejaVuSans-47" d="M 3809 666 
L 3809 1919 
L 2778 1919 
L 2778 2438 
L 4434 2438 
L 4434 434 
Q 4069 175 3628 42 
Q 3188 -91 2688 -91 
Q 1594 -91 976 548 
Q 359 1188 359 2328 
Q 359 3472 976 4111 
Q 1594 4750 2688 4750 
Q 3144 4750 3555 4637 
Q 3966 4525 4313 4306 
L 4313 3634 
Q 3963 3931 3569 4081 
Q 3175 4231 2741 4231 
Q 1884 4231 1454 3753 
Q 1025 3275 1025 2328 
Q 1025 1384 1454 906 
Q 1884 428 2741 428 
Q 3075 428 3337 486 
Q 3600 544 3809 666 
z
" transform="scale(0.015625)"/>
      </defs>
      <use xlink:href="#DejaVuSans-47"/>
      <use xlink:href="#DejaVuSans-50" transform="translate(77.490234 0)"/>
      <use xlink:href="#DejaVuSans-20" transform="translate(137.792969 0)"/>
      <use xlink:href="#DejaVuSans-70" transform="translate(169.580078 0)"/>
      <use xlink:href="#DejaVuSans-6f" transform="translate(233.056641 0)"/>
      <use xlink:href="#DejaVuSans-73" transform="translate(294.238281 0)"/>
      <use xlink:href="#DejaVuSans-74" transform="translate(346.337891 0)"/>
      <use xlink:href="#DejaVuSans-65" transform="translate(385.546875 0)"/>
      <use xlink:href="#DejaVuSans-72" transform="translate(447.070312 0)"/>
      <use xlink:href="#DejaVuSans-69" transform="translate(488.183594 0)"/>
      <use xlink:href="#DejaVuSans-6f" transform="translate(515.966797 0)"/>
      <use xlink:href="#DejaVuSans-72" transform="translate(577.148438 0)"/>
      <use xlink:href="#DejaVuSans-20" transform="translate(618.261719 0)"/>
      <use xlink:href="#DejaVuSans-6d" transform="translate(650.048828 0)"/>
      <use xlink:href="#DejaVuSans-65" transform="translate(747.460938 0)"/>
      <use xlink:href="#DejaVuSans-61" transform="translate(808.984375 0)"/>
      <use xlink:href="#DejaVuSans-6e" transform="translate(870.263672 0)"/>
     </g>
    </g>
    <g id="line2d_30">
     <path d="M 532.98375 72.85625 
L 540.98375 72.85625 
L 548.98375 72.85625 
" style="fill: none; stroke-dasharray: 1.7,2.805; stroke-dashoffset: 0; stroke: #2ca02c; stroke-width: 1.7"/>
    </g>
    <g id="text_20">
     <!-- UCB acquisition -->
     <g transform="translate(555.38375 75.65625) scale(0.08 -0.08)">
      <defs>
       <path id="DejaVuSans-55" d="M 556 4666 
L 1191 4666 
L 1191 1831 
Q 1191 1081 1462 751 
Q 1734 422 2344 422 
Q 2950 422 3222 751 
Q 3494 1081 3494 1831 
L 3494 4666 
L 4128 4666 
L 4128 1753 
Q 4128 841 3676 375 
Q 3225 -91 2344 -91 
Q 1459 -91 1007 375 
Q 556 841 556 1753 
L 556 4666 
z
" transform="scale(0.015625)"/>
       <path id="DejaVuSans-43" d="M 4122 4306 
L 4122 3641 
Q 3803 3938 3442 4084 
Q 3081 4231 2675 4231 
Q 1875 4231 1450 3742 
Q 1025 3253 1025 2328 
Q 1025 1406 1450 917 
Q 1875 428 2675 428 
Q 3081 428 3442 575 
Q 3803 722 4122 1019 
L 4122 359 
Q 3791 134 3420 21 
Q 3050 -91 2638 -91 
Q 1578 -91 968 557 
Q 359 1206 359 2328 
Q 359 3453 968 4101 
Q 1578 4750 2638 4750 
Q 3056 4750 3426 4639 
Q 3797 4528 4122 4306 
z
" transform="scale(0.015625)"/>
       <path id="DejaVuSans-42" d="M 1259 2228 
L 1259 519 
L 2272 519 
Q 2781 519 3026 730 
Q 3272 941 3272 1375 
Q 3272 1813 3026 2020 
Q 2781 2228 2272 2228 
L 1259 2228 
z
M 1259 4147 
L 1259 2741 
L 2194 2741 
Q 2656 2741 2882 2914 
Q 3109 3088 3109 3444 
Q 3109 3797 2882 3972 
Q 2656 4147 2194 4147 
L 1259 4147 
z
M 628 4666 
L 2241 4666 
Q 2963 4666 3353 4366 
Q 3744 4066 3744 3513 
Q 3744 3084 3544 2831 
Q 3344 2578 2956 2516 
Q 3422 2416 3680 2098 
Q 3938 1781 3938 1306 
Q 3938 681 3513 340 
Q 3088 0 2303 0 
L 628 0 
L 628 4666 
z
" transform="scale(0.015625)"/>
       <path id="DejaVuSans-71" d="M 947 1747 
Q 947 1113 1208 752 
Q 1469 391 1925 391 
Q 2381 391 2643 752 
Q 2906 1113 2906 1747 
Q 2906 2381 2643 2742 
Q 2381 3103 1925 3103 
Q 1469 3103 1208 2742 
Q 947 2381 947 1747 
z
M 2906 525 
Q 2725 213 2448 61 
Q 2172 -91 1784 -91 
Q 1150 -91 751 415 
Q 353 922 353 1747 
Q 353 2572 751 3078 
Q 1150 3584 1784 3584 
Q 2172 3584 2448 3432 
Q 2725 3281 2906 2969 
L 2906 3500 
L 3481 3500 
L 3481 -1331 
L 2906 -1331 
L 2906 525 
z
" transform="scale(0.015625)"/>
      </defs>
      <use xlink:href="#DejaVuSans-55"/>
      <use xlink:href="#DejaVuSans-43" transform="translate(73.193359 0)"/>
      <use xlink:href="#DejaVuSans-42" transform="translate(143.017578 0)"/>
      <use xlink:href="#DejaVuSans-20" transform="translate(211.621094 0)"/>
      <use xlink:href="#DejaVuSans-61" transform="translate(243.408203 0)"/>
      <use xlink:href="#DejaVuSans-63" transform="translate(304.6875 0)"/>
      <use xlink:href="#DejaVuSans-71" transform="translate(359.667969 0)"/>
      <use xlink:href="#DejaVuSans-75" transform="translate(423.144531 0)"/>
      <use xlink:href="#DejaVuSans-69" transform="translate(486.523438 0)"/>
      <use xlink:href="#DejaVuSans-73" transform="translate(514.306641 0)"/>
      <use xlink:href="#DejaVuSans-69" transform="translate(566.40625 0)"/>
      <use xlink:href="#DejaVuSans-74" transform="translate(594.189453 0)"/>
      <use xlink:href="#DejaVuSans-69" transform="translate(633.398438 0)"/>
      <use xlink:href="#DejaVuSans-6f" transform="translate(661.181641 0)"/>
      <use xlink:href="#DejaVuSans-6e" transform="translate(722.363281 0)"/>
     </g>
    </g>
    <g id="PathCollection_2">
     <g>
      <use xlink:href="#m5f8b6b0956" x="540.98375" y="85.29875" style="fill: #ff7f0e; stroke: #ff7f0e"/>
     </g>
    </g>
    <g id="text_21">
     <!-- Observed trials -->
     <g transform="translate(555.38375 87.39875) scale(0.08 -0.08)">
      <defs>
       <path id="DejaVuSans-4f" d="M 2522 4238 
Q 1834 4238 1429 3725 
Q 1025 3213 1025 2328 
Q 1025 1447 1429 934 
Q 1834 422 2522 422 
Q 3209 422 3611 934 
Q 4013 1447 4013 2328 
Q 4013 3213 3611 3725 
Q 3209 4238 2522 4238 
z
M 2522 4750 
Q 3503 4750 4090 4092 
Q 4678 3434 4678 2328 
Q 4678 1225 4090 567 
Q 3503 -91 2522 -91 
Q 1538 -91 948 565 
Q 359 1222 359 2328 
Q 359 3434 948 4092 
Q 1538 4750 2522 4750 
z
" transform="scale(0.015625)"/>
      </defs>
      <use xlink:href="#DejaVuSans-4f"/>
      <use xlink:href="#DejaVuSans-62" transform="translate(78.710938 0)"/>
      <use xlink:href="#DejaVuSans-73" transform="translate(142.1875 0)"/>
      <use xlink:href="#DejaVuSans-65" transform="translate(194.287109 0)"/>
      <use xlink:href="#DejaVuSans-72" transform="translate(255.810547 0)"/>
      <use xlink:href="#DejaVuSans-76" transform="translate(296.923828 0)"/>
      <use xlink:href="#DejaVuSans-65" transform="translate(356.103516 0)"/>
      <use xlink:href="#DejaVuSans-64" transform="translate(417.626953 0)"/>
      <use xlink:href="#DejaVuSans-20" transform="translate(481.103516 0)"/>
      <use xlink:href="#DejaVuSans-74" transform="translate(512.890625 0)"/>
      <use xlink:href="#DejaVuSans-72" transform="translate(552.099609 0)"/>
      <use xlink:href="#DejaVuSans-69" transform="translate(593.212891 0)"/>
      <use xlink:href="#DejaVuSans-61" transform="translate(620.996094 0)"/>
      <use xlink:href="#DejaVuSans-6c" transform="translate(682.275391 0)"/>
      <use xlink:href="#DejaVuSans-73" transform="translate(710.058594 0)"/>
     </g>
    </g>
    <g id="PathCollection_3">
     <defs>
      <path id="m721b5c08bb" d="M 0 -5.477226 
L -1.229714 -1.692556 
L -5.209151 -1.692556 
L -1.989719 0.646499 
L -3.219432 4.431169 
L -0 2.092114 
L 3.219432 4.431169 
L 1.989719 0.646499 
L 5.209151 -1.692556 
L 1.229714 -1.692556 
z
" style="stroke: #2ca02c"/>
     </defs>
     <g>
      <use xlink:href="#m721b5c08bb" x="540.98375" y="97.04125" style="fill: #2ca02c; stroke: #2ca02c"/>
     </g>
    </g>
    <g id="text_22">
     <!-- Next selected action -->
     <g transform="translate(555.38375 99.14125) scale(0.08 -0.08)">
      <use xlink:href="#DejaVuSans-4e"/>
      <use xlink:href="#DejaVuSans-65" transform="translate(74.804688 0)"/>
      <use xlink:href="#DejaVuSans-78" transform="translate(134.578125 0)"/>
      <use xlink:href="#DejaVuSans-74" transform="translate(193.757812 0)"/>
      <use xlink:href="#DejaVuSans-20" transform="translate(232.966797 0)"/>
      <use xlink:href="#DejaVuSans-73" transform="translate(264.753906 0)"/>
      <use xlink:href="#DejaVuSans-65" transform="translate(316.853516 0)"/>
      <use xlink:href="#DejaVuSans-6c" transform="translate(378.376953 0)"/>
      <use xlink:href="#DejaVuSans-65" transform="translate(406.160156 0)"/>
      <use xlink:href="#DejaVuSans-63" transform="translate(467.683594 0)"/>
      <use xlink:href="#DejaVuSans-74" transform="translate(522.664062 0)"/>
      <use xlink:href="#DejaVuSans-65" transform="translate(561.873047 0)"/>
      <use xlink:href="#DejaVuSans-64" transform="translate(623.396484 0)"/>
      <use xlink:href="#DejaVuSans-20" transform="translate(686.873047 0)"/>
      <use xlink:href="#DejaVuSans-61" transform="translate(718.660156 0)"/>
      <use xlink:href="#DejaVuSans-63" transform="translate(779.939453 0)"/>
      <use xlink:href="#DejaVuSans-74" transform="translate(834.919922 0)"/>
      <use xlink:href="#DejaVuSans-69" transform="translate(874.128906 0)"/>
      <use xlink:href="#DejaVuSans-6f" transform="translate(901.912109 0)"/>
      <use xlink:href="#DejaVuSans-6e" transform="translate(963.09375 0)"/>
     </g>
    </g>
   </g>
   <g id="PathCollection_4">
    <g clip-path="url(#p0471d39de1)">
     <use xlink:href="#m721b5c08bb" x="82.26733" y="143.969472" style="fill: #2ca02c; stroke: #2ca02c"/>
    </g>
   </g>
  </g>
 </g>
 <defs>
  <clipPath id="p0471d39de1">
   <rect x="55.15625" y="27.15" width="596.44375" height="278.65"/>
  </clipPath>
 </defs>
</svg>
